<svg xmlns="http://www.w3.org/2000/svg" xmlns:xlink="http://www.w3.org/1999/xlink" width="500" zoomAndPan="magnify" viewBox="0 0 375 374.999991" height="500" preserveAspectRatio="xMidYMid meet" version="1.0"><defs><g/><clipPath id="2133ba55e5"><path d="M 9.386719 101.066406 L 358.886719 101.066406 L 358.886719 245 L 9.386719 245 Z M 9.386719 101.066406 " clip-rule="nonzero"/></clipPath><clipPath id="43c2b64c97"><path d="M 8.636719 122.816406 L 8.636719 222.726562 C 8.636719 235.152344 18.710938 245.226562 31.136719 245.226562 L 337.246094 245.226562 C 349.671875 245.226562 359.746094 235.152344 359.746094 222.726562 L 359.746094 122.816406 C 359.746094 110.390625 349.671875 100.316406 337.246094 100.316406 L 31.136719 100.316406 C 18.710938 100.316406 8.636719 110.390625 8.636719 122.816406 Z M 8.636719 122.816406 " clip-rule="nonzero"/></clipPath><clipPath id="47d46777d3"><path d="M 32.039062 101.214844 L 336.34375 101.214844 C 348.773438 101.214844 358.84375 111.289062 358.84375 123.714844 L 358.84375 221.828125 C 358.84375 234.253906 348.773438 244.328125 336.34375 244.328125 L 32.039062 244.328125 C 19.613281 244.328125 9.539062 234.253906 9.539062 221.828125 L 9.539062 123.714844 C 9.539062 111.289062 19.613281 101.214844 32.039062 101.214844 Z M 32.039062 101.214844 " clip-rule="nonzero"/></clipPath><clipPath id="e22352d5c5"><path d="M 8.636719 100.316406 L 359.636719 100.316406 L 359.636719 245.066406 L 8.636719 245.066406 Z M 8.636719 100.316406 " clip-rule="nonzero"/></clipPath><clipPath id="b64e274928"><path d="M 8.636719 122.816406 L 8.636719 222.726562 C 8.636719 235.152344 18.710938 245.226562 31.136719 245.226562 L 337.246094 245.226562 C 349.671875 245.226562 359.746094 235.152344 359.746094 222.726562 L 359.746094 122.816406 C 359.746094 110.390625 349.671875 100.316406 337.246094 100.316406 L 31.136719 100.316406 C 18.710938 100.316406 8.636719 110.390625 8.636719 122.816406 Z M 8.636719 122.816406 " clip-rule="nonzero"/></clipPath><clipPath id="e925cd4af1"><path d="M 8.636719 122.816406 L 8.636719 222.71875 C 8.636719 235.144531 18.710938 245.21875 31.136719 245.21875 L 337.242188 245.21875 C 349.671875 245.21875 359.742188 235.144531 359.742188 222.71875 L 359.742188 122.816406 C 359.742188 110.390625 349.671875 100.316406 337.242188 100.316406 L 31.136719 100.316406 C 18.710938 100.316406 8.636719 110.390625 8.636719 122.816406 Z M 8.636719 122.816406 " clip-rule="nonzero"/></clipPath><clipPath id="d91cbf9929"><path d="M 20 133.429688 L 116 133.429688 L 116 200.929688 L 20 200.929688 Z M 20 133.429688 " clip-rule="nonzero"/></clipPath><clipPath id="5bab522245"><path d="M 0.28125 3 L 23 3 L 23 28 L 0.28125 28 Z M 0.28125 3 " clip-rule="nonzero"/></clipPath><clipPath id="e5eb363ab3"><rect x="0" width="168" y="0" height="35"/></clipPath><clipPath id="5e06222dbc"><path d="M 21 27 L 21.480469 27 L 21.480469 28 L 21 28 Z M 21 27 " clip-rule="nonzero"/></clipPath><clipPath id="ffe84d89fa"><rect x="0" width="22" y="0" height="35"/></clipPath></defs><g clip-path="url(#2133ba55e5)"><g clip-path="url(#43c2b64c97)"><g clip-path="url(#47d46777d3)"><path fill="#9ba8ab" d="M 33.597656 100.425781 L 334.785156 100.425781 C 335.601562 100.425781 336.417969 100.464844 337.230469 100.546875 C 338.046875 100.625 338.851562 100.746094 339.65625 100.90625 C 340.457031 101.066406 341.25 101.261719 342.03125 101.5 C 342.8125 101.738281 343.582031 102.011719 344.335938 102.324219 C 345.089844 102.636719 345.828125 102.988281 346.550781 103.371094 C 347.269531 103.757812 347.972656 104.179688 348.652344 104.632812 C 349.332031 105.085938 349.988281 105.574219 350.617188 106.089844 C 351.25 106.609375 351.855469 107.15625 352.433594 107.734375 C 353.011719 108.3125 353.558594 108.917969 354.078125 109.550781 C 354.597656 110.183594 355.082031 110.839844 355.539062 111.519531 C 355.992188 112.199219 356.410156 112.898438 356.796875 113.617188 C 357.183594 114.339844 357.53125 115.078125 357.84375 115.832031 C 358.15625 116.589844 358.433594 117.355469 358.667969 118.140625 C 358.90625 118.921875 359.105469 119.714844 359.265625 120.515625 C 359.421875 121.316406 359.542969 122.125 359.625 122.9375 C 359.703125 123.75 359.742188 124.566406 359.742188 125.382812 L 359.742188 220.148438 C 359.742188 220.96875 359.703125 221.785156 359.625 222.597656 C 359.542969 223.410156 359.421875 224.21875 359.265625 225.019531 C 359.105469 225.820312 358.90625 226.613281 358.667969 227.394531 C 358.433594 228.175781 358.15625 228.945312 357.84375 229.703125 C 357.53125 230.457031 357.183594 231.195312 356.796875 231.914062 C 356.410156 232.636719 355.992188 233.335938 355.539062 234.015625 C 355.082031 234.695312 354.597656 235.351562 354.078125 235.984375 C 353.558594 236.617188 353.011719 237.21875 352.433594 237.796875 C 351.855469 238.375 351.25 238.925781 350.617188 239.445312 C 349.988281 239.960938 349.332031 240.449219 348.652344 240.902344 C 347.972656 241.355469 347.273438 241.777344 346.550781 242.160156 C 345.828125 242.546875 345.089844 242.894531 344.335938 243.207031 C 343.582031 243.523438 342.8125 243.796875 342.03125 244.035156 C 341.25 244.269531 340.457031 244.46875 339.65625 244.628906 C 338.851562 244.789062 338.046875 244.910156 337.230469 244.988281 C 336.417969 245.070312 335.601562 245.109375 334.785156 245.109375 L 33.597656 245.109375 C 32.78125 245.109375 31.964844 245.070312 31.152344 244.988281 C 30.335938 244.910156 29.53125 244.789062 28.726562 244.628906 C 27.925781 244.46875 27.132812 244.269531 26.351562 244.035156 C 25.570312 243.796875 24.800781 243.523438 24.046875 243.210938 C 23.289062 242.894531 22.550781 242.546875 21.832031 242.160156 C 21.109375 241.777344 20.410156 241.355469 19.730469 240.902344 C 19.050781 240.449219 18.394531 239.960938 17.761719 239.445312 C 17.132812 238.925781 16.527344 238.375 15.949219 237.796875 C 15.371094 237.21875 14.820312 236.617188 14.304688 235.984375 C 13.785156 235.351562 13.296875 234.695312 12.84375 234.015625 C 12.390625 233.335938 11.96875 232.636719 11.585938 231.914062 C 11.199219 231.195312 10.851562 230.457031 10.539062 229.703125 C 10.226562 228.945312 9.949219 228.175781 9.714844 227.394531 C 9.476562 226.613281 9.277344 225.820312 9.117188 225.019531 C 8.957031 224.21875 8.839844 223.410156 8.757812 222.597656 C 8.679688 221.785156 8.636719 220.96875 8.636719 220.148438 L 8.636719 125.382812 C 8.636719 124.566406 8.679688 123.75 8.757812 122.9375 C 8.839844 122.125 8.957031 121.316406 9.117188 120.515625 C 9.277344 119.714844 9.476562 118.921875 9.714844 118.140625 C 9.949219 117.355469 10.226562 116.589844 10.539062 115.832031 C 10.851562 115.078125 11.199219 114.339844 11.585938 113.617188 C 11.96875 112.898438 12.390625 112.199219 12.84375 111.519531 C 13.296875 110.839844 13.785156 110.183594 14.304688 109.550781 C 14.820312 108.917969 15.371094 108.3125 15.949219 107.734375 C 16.527344 107.15625 17.132812 106.609375 17.761719 106.089844 C 18.394531 105.574219 19.050781 105.085938 19.730469 104.632812 C 20.410156 104.179688 21.109375 103.757812 21.832031 103.371094 C 22.550781 102.988281 23.289062 102.636719 24.046875 102.324219 C 24.800781 102.011719 25.570312 101.738281 26.351562 101.5 C 27.132812 101.261719 27.925781 101.066406 28.726562 100.90625 C 29.53125 100.746094 30.335938 100.625 31.152344 100.546875 C 31.964844 100.464844 32.78125 100.425781 33.597656 100.425781 Z M 33.597656 100.425781 " fill-opacity="1" fill-rule="nonzero"/></g></g></g><g clip-path="url(#e22352d5c5)"><g clip-path="url(#b64e274928)"><g clip-path="url(#e925cd4af1)"><path stroke-linecap="butt" transform="matrix(0.75, 0, 0, 0.75, 8.638303, 100.316096)" fill="none" stroke-linejoin="miter" d="M -0.00211208 30.000416 L -0.00211208 163.20355 C -0.00211208 179.771259 13.43018 193.203552 29.99789 193.203552 L 438.138542 193.203552 C 454.711459 193.203552 468.138544 179.771259 468.138544 163.20355 L 468.138544 30.000416 C 468.138544 13.432706 454.711459 0.000413917 438.138542 0.000413917 L 29.99789 0.000413917 C 13.43018 0.000413917 -0.00211208 13.432706 -0.00211208 30.000416 Z M -0.00211208 30.000416 " stroke="#000000" stroke-width="4" stroke-opacity="1" stroke-miterlimit="4"/></g></g></g><g clip-path="url(#d91cbf9929)"><path fill="#282828" d="M 113.28125 144.179688 C 112.195312 140.078125 108.933594 136.804688 104.847656 135.714844 C 97.453125 133.691406 67.714844 133.691406 67.714844 133.691406 C 67.714844 133.691406 37.925781 133.742188 30.53125 135.769531 C 26.445312 136.859375 23.1875 140.128906 22.101562 144.230469 C 20.132812 151.65625 20.132812 167.179688 20.132812 167.179688 C 20.132812 167.179688 20.132812 182.707031 22.152344 190.183594 C 23.238281 194.285156 26.496094 197.554688 30.582031 198.648438 C 37.976562 200.671875 67.714844 200.671875 67.714844 200.671875 C 67.714844 200.671875 97.453125 200.671875 104.847656 198.648438 C 108.933594 197.554688 112.195312 194.285156 113.28125 190.183594 C 115.296875 182.757812 115.296875 167.179688 115.296875 167.179688 C 115.296875 167.179688 115.296875 151.65625 113.28125 144.179688 Z M 58.199219 181.511719 L 58.199219 152.851562 L 82.921875 167.179688 Z M 58.199219 181.511719 " fill-opacity="1" fill-rule="nonzero"/></g><path fill="#282828" d="M 158.222656 194.597656 C 156.308594 193.296875 154.964844 191.324219 154.1875 188.625 C 153.414062 185.925781 153.050781 182.394531 153.050781 177.878906 L 153.050781 171.855469 C 153.050781 167.390625 153.464844 163.703125 154.394531 161.003906 C 155.328125 158.25 156.722656 156.277344 158.6875 155.03125 C 160.652344 153.785156 163.136719 153.109375 166.238281 153.109375 C 169.289062 153.109375 171.824219 153.734375 173.636719 155.03125 C 175.445312 156.328125 176.894531 158.300781 177.71875 161.003906 C 178.546875 163.703125 179.011719 167.335938 179.011719 171.800781 L 179.011719 177.878906 C 179.011719 182.34375 178.601562 185.925781 177.71875 188.625 C 176.839844 191.324219 175.496094 193.296875 173.636719 194.597656 C 171.722656 195.84375 169.1875 196.519531 165.980469 196.519531 C 162.671875 196.519531 160.136719 195.84375 158.222656 194.597656 Z M 168.824219 188.054688 C 169.394531 186.703125 169.601562 184.421875 169.601562 181.355469 L 169.601562 168.273438 C 169.601562 165.261719 169.34375 163.078125 168.824219 161.730469 C 168.257812 160.328125 167.378906 159.652344 166.085938 159.652344 C 164.792969 159.652344 163.964844 160.328125 163.394531 161.730469 C 162.824219 163.132812 162.617188 165.3125 162.617188 168.273438 L 162.617188 181.355469 C 162.617188 184.421875 162.878906 186.703125 163.34375 188.054688 C 163.808594 189.40625 164.738281 190.078125 166.085938 190.078125 C 167.324219 190.078125 168.257812 189.40625 168.824219 188.054688 Z M 168.824219 188.054688 " fill-opacity="1" fill-rule="nonzero"/><path fill="#282828" d="M 302.722656 178.035156 L 302.722656 180.164062 C 302.722656 182.863281 302.777344 184.886719 302.984375 186.238281 C 303.191406 187.585938 303.449219 188.574219 303.964844 189.195312 C 304.429688 189.820312 305.257812 190.132812 306.292969 190.132812 C 307.6875 190.132812 308.671875 189.558594 309.1875 188.46875 C 309.757812 187.378906 309.964844 185.511719 310.066406 183.019531 L 318.1875 183.484375 C 318.238281 183.847656 318.238281 184.367188 318.238281 184.9375 C 318.238281 188.78125 317.207031 191.6875 315.085938 193.609375 C 312.964844 195.53125 310.015625 196.519531 306.1875 196.519531 C 301.535156 196.519531 298.328125 195.0625 296.464844 192.15625 C 294.65625 189.25 293.671875 184.730469 293.671875 178.65625 L 293.671875 171.230469 C 293.671875 165 294.65625 160.378906 296.570312 157.472656 C 298.535156 154.5625 301.84375 153.109375 306.449219 153.109375 C 309.707031 153.109375 312.136719 153.734375 313.84375 154.875 C 315.550781 156.019531 316.792969 157.886719 317.515625 160.378906 C 318.238281 162.871094 318.550781 166.351562 318.550781 170.765625 L 318.550781 177.929688 L 302.722656 177.929688 Z M 303.964844 160.378906 C 303.5 161.003906 303.191406 161.9375 302.984375 163.289062 C 302.777344 164.636719 302.722656 166.664062 302.722656 169.414062 L 302.722656 172.375 L 309.550781 172.375 L 309.550781 169.363281 C 309.550781 166.664062 309.5 164.636719 309.292969 163.234375 C 309.085938 161.832031 308.828125 160.847656 308.308594 160.277344 C 307.84375 159.703125 307.070312 159.394531 306.085938 159.394531 C 305.101562 159.496094 304.378906 159.808594 303.964844 160.378906 Z M 303.964844 160.378906 " fill-opacity="1" fill-rule="nonzero"/><path fill="#282828" d="M 135.363281 177.253906 L 124.710938 138.46875 L 134.070312 138.46875 L 137.792969 156.019531 C 138.777344 160.378906 139.449219 164.066406 139.914062 167.078125 L 140.171875 167.078125 C 140.484375 164.84375 141.207031 161.261719 142.292969 156.121094 L 146.121094 138.519531 L 155.480469 138.519531 L 144.671875 177.203125 L 144.671875 195.738281 L 135.464844 195.738281 L 135.464844 177.253906 Z M 135.363281 177.253906 " fill-opacity="1" fill-rule="nonzero"/><path fill="#282828" d="M 209.320312 153.941406 L 209.320312 195.84375 L 201.976562 195.84375 L 201.199219 190.703125 L 200.992188 190.703125 C 198.976562 194.546875 195.976562 196.519531 191.996094 196.519531 C 189.253906 196.519531 187.183594 195.582031 185.890625 193.765625 C 184.546875 191.949219 183.925781 189.09375 183.925781 185.25 L 183.925781 153.941406 L 193.339844 153.941406 L 193.339844 184.679688 C 193.339844 186.496094 193.546875 187.847656 193.960938 188.675781 C 194.375 189.457031 195.046875 189.820312 195.976562 189.820312 C 196.753906 189.820312 197.582031 189.558594 198.304688 189.09375 C 199.027344 188.625 199.597656 187.949219 199.960938 187.171875 L 199.960938 153.941406 Z M 209.320312 153.941406 " fill-opacity="1" fill-rule="nonzero"/><path fill="#282828" d="M 257.523438 153.941406 L 257.523438 195.84375 L 250.179688 195.84375 L 249.402344 190.703125 L 249.195312 190.703125 C 247.179688 194.546875 244.179688 196.519531 240.195312 196.519531 C 237.457031 196.519531 235.386719 195.582031 234.09375 193.765625 C 232.75 191.949219 232.128906 189.09375 232.128906 185.25 L 232.128906 153.941406 L 241.542969 153.941406 L 241.542969 184.679688 C 241.542969 186.496094 241.75 187.847656 242.160156 188.675781 C 242.574219 189.457031 243.246094 189.820312 244.179688 189.820312 C 244.953125 189.820312 245.78125 189.558594 246.507812 189.09375 C 247.230469 188.625 247.800781 187.949219 248.160156 187.171875 L 248.160156 153.941406 Z M 257.523438 153.941406 " fill-opacity="1" fill-rule="nonzero"/><path fill="#282828" d="M 234.871094 146.101562 L 225.507812 146.101562 L 225.507812 195.84375 L 216.355469 195.84375 L 216.355469 146.101562 L 206.992188 146.101562 L 206.992188 138.46875 L 234.816406 138.46875 L 234.816406 146.050781 L 234.871094 146.050781 Z M 234.871094 146.101562 " fill-opacity="1" fill-rule="nonzero"/><path fill="#282828" d="M 288.554688 160.640625 C 287.984375 157.992188 287.105469 156.121094 285.8125 154.875 C 284.519531 153.734375 282.8125 153.109375 280.535156 153.109375 C 278.832031 153.109375 277.175781 153.578125 275.726562 154.5625 C 274.175781 155.550781 273.089844 156.847656 272.261719 158.40625 L 272.210938 158.40625 L 272.210938 136.339844 L 263.160156 136.339844 L 263.160156 195.738281 L 270.917969 195.738281 L 271.898438 191.742188 L 272.105469 191.742188 C 272.832031 193.144531 273.917969 194.234375 275.363281 195.117188 C 276.8125 195.894531 278.417969 196.363281 280.175781 196.363281 C 283.328125 196.363281 285.65625 194.910156 287.207031 191.949219 C 288.65625 188.988281 289.484375 184.421875 289.484375 178.1875 L 289.484375 171.59375 C 289.378906 166.921875 289.121094 163.234375 288.554688 160.640625 Z M 279.917969 177.722656 C 279.917969 180.785156 279.8125 183.171875 279.554688 184.886719 C 279.296875 186.601562 278.882812 187.847656 278.261719 188.574219 C 277.640625 189.300781 276.863281 189.664062 275.882812 189.664062 C 275.105469 189.664062 274.433594 189.457031 273.761719 189.09375 C 273.089844 188.730469 272.625 188.160156 272.160156 187.429688 L 272.160156 163.703125 C 272.46875 162.558594 273.039062 161.625 273.8125 160.898438 C 274.589844 160.171875 275.417969 159.808594 276.296875 159.808594 C 277.277344 159.808594 278.003906 160.171875 278.519531 160.898438 C 279.089844 161.625 279.398438 162.921875 279.605469 164.6875 C 279.8125 166.453125 279.917969 169 279.917969 172.269531 Z M 279.917969 177.722656 " fill-opacity="1" fill-rule="nonzero"/><g transform="matrix(1, 0, 0, 1, 137, 203)"><g clip-path="url(#e5eb363ab3)"><g fill="#ff0000" fill-opacity="1"><g transform="translate(2.138179, 27.326526)"><g><path d="M 15.40625 -20.984375 C 15.476562 -21.410156 15.582031 -21.773438 15.71875 -22.078125 C 15.925781 -22.535156 16.203125 -22.875 16.546875 -23.09375 C 16.835938 -23.320312 17.164062 -23.484375 17.53125 -23.578125 C 17.738281 -23.648438 17.953125 -23.707031 18.171875 -23.75 C 18.398438 -23.789062 18.640625 -23.828125 18.890625 -23.859375 C 19.078125 -23.878906 19.269531 -23.894531 19.46875 -23.90625 C 19.675781 -23.914062 19.894531 -23.921875 20.125 -23.921875 L 21.765625 -23.921875 C 21.398438 -23.578125 21.128906 -23.335938 20.953125 -23.203125 C 20.859375 -23.109375 20.773438 -23.023438 20.703125 -22.953125 C 20.640625 -22.890625 20.582031 -22.828125 20.53125 -22.765625 C 20.445312 -22.648438 20.367188 -22.5 20.296875 -22.3125 C 20.296875 -22.195312 20.265625 -22.003906 20.203125 -21.734375 L 19.578125 -16.921875 L 18.078125 -6.078125 L 17.90625 -4.8125 C 17.832031 -4.226562 17.757812 -3.726562 17.6875 -3.3125 C 17.625 -2.90625 17.570312 -2.597656 17.53125 -2.390625 C 17.394531 -1.660156 17.203125 -1.132812 16.953125 -0.8125 C 16.648438 -0.40625 16.054688 -0.15625 15.171875 -0.0625 C 14.941406 -0.0390625 14.597656 -0.0234375 14.140625 -0.015625 C 13.691406 -0.00390625 13.125 0 12.4375 0 L 4.75 0 C 4.175781 0 3.695312 -0.00390625 3.3125 -0.015625 C 2.925781 -0.0234375 2.628906 -0.03125 2.421875 -0.03125 C 1.378906 -0.101562 0.742188 -0.378906 0.515625 -0.859375 C 0.398438 -1.128906 0.34375 -1.457031 0.34375 -1.84375 C 0.34375 -1.957031 0.347656 -2.066406 0.359375 -2.171875 C 0.367188 -2.273438 0.375 -2.382812 0.375 -2.5 C 0.414062 -2.925781 0.519531 -3.695312 0.6875 -4.8125 C 0.75 -5.269531 0.828125 -5.820312 0.921875 -6.46875 C 1.015625 -7.125 1.117188 -7.875 1.234375 -8.71875 C 1.367188 -9.582031 1.472656 -10.289062 1.546875 -10.84375 C 1.628906 -11.40625 1.679688 -11.832031 1.703125 -12.125 C 1.890625 -13.46875 2.03125 -14.335938 2.125 -14.734375 C 2.300781 -15.503906 2.539062 -16.023438 2.84375 -16.296875 C 3.113281 -16.566406 3.554688 -16.738281 4.171875 -16.8125 C 4.648438 -16.882812 5.515625 -16.921875 6.765625 -16.921875 L 14.734375 -16.921875 Z M 7.96875 -12.125 C 7.894531 -12.125 7.800781 -12.125 7.6875 -12.125 C 7.570312 -12.125 7.425781 -12.113281 7.25 -12.09375 C 7.082031 -12.09375 6.976562 -12.082031 6.9375 -12.0625 C 6.863281 -12.0625 6.785156 -12.015625 6.703125 -11.921875 C 6.628906 -11.859375 6.5625 -11.722656 6.5 -11.515625 C 6.5 -11.421875 6.460938 -11.203125 6.390625 -10.859375 L 5.53125 -4.8125 L 12.40625 -4.8125 C 12.65625 -4.863281 12.8125 -4.929688 12.875 -5.015625 C 12.945312 -5.085938 13.003906 -5.203125 13.046875 -5.359375 C 13.097656 -5.429688 13.132812 -5.53125 13.15625 -5.65625 C 13.175781 -5.78125 13.195312 -5.921875 13.21875 -6.078125 L 14.046875 -12.125 Z M 7.96875 -12.125 "/></g></g></g><g fill="#ff0000" fill-opacity="1"><g transform="translate(21.81727, 27.326526)"><g><path d="M 1.671875 -12.125 C 1.804688 -13.15625 1.910156 -13.828125 1.984375 -14.140625 C 2.191406 -15.191406 2.460938 -15.890625 2.796875 -16.234375 C 3.117188 -16.578125 3.609375 -16.78125 4.265625 -16.84375 C 4.515625 -16.894531 4.867188 -16.921875 5.328125 -16.921875 C 5.785156 -16.921875 6.359375 -16.921875 7.046875 -16.921875 L 14.90625 -16.921875 C 15.738281 -16.921875 16.421875 -16.90625 16.953125 -16.875 C 17.492188 -16.851562 17.878906 -16.8125 18.109375 -16.75 C 18.515625 -16.675781 18.8125 -16.492188 19 -16.203125 C 19.15625 -15.972656 19.234375 -15.59375 19.234375 -15.0625 L 19.234375 -14.734375 C 19.234375 -14.296875 19.132812 -13.425781 18.9375 -12.125 L 17.90625 -4.8125 C 17.75 -3.601562 17.613281 -2.773438 17.5 -2.328125 C 17.363281 -1.679688 17.191406 -1.210938 16.984375 -0.921875 C 16.734375 -0.535156 16.273438 -0.273438 15.609375 -0.140625 C 15.390625 -0.117188 15.023438 -0.0859375 14.515625 -0.046875 C 14.015625 -0.015625 13.378906 0 12.609375 0 L 4.578125 0 C 3.847656 0 3.242188 -0.015625 2.765625 -0.046875 C 2.285156 -0.0859375 1.921875 -0.117188 1.671875 -0.140625 C 1.171875 -0.222656 0.804688 -0.414062 0.578125 -0.71875 C 0.515625 -0.851562 0.457031 -1.015625 0.40625 -1.203125 C 0.363281 -1.398438 0.34375 -1.613281 0.34375 -1.84375 L 0.34375 -2.25 C 0.382812 -2.707031 0.488281 -3.5625 0.65625 -4.8125 C 0.71875 -5.269531 0.800781 -5.820312 0.90625 -6.46875 C 1.007812 -7.125 1.117188 -7.875 1.234375 -8.71875 C 1.367188 -9.582031 1.46875 -10.289062 1.53125 -10.84375 C 1.601562 -11.40625 1.648438 -11.832031 1.671875 -12.125 Z M 8.203125 -12.125 C 7.929688 -12.125 7.703125 -12.125 7.515625 -12.125 C 7.335938 -12.125 7.203125 -12.113281 7.109375 -12.09375 C 6.878906 -12.050781 6.71875 -11.984375 6.625 -11.890625 C 6.5625 -11.828125 6.492188 -11.632812 6.421875 -11.3125 C 6.421875 -11.289062 6.414062 -11.238281 6.40625 -11.15625 C 6.394531 -11.070312 6.378906 -10.972656 6.359375 -10.859375 L 5.5 -4.8125 L 12.609375 -4.8125 C 12.765625 -4.863281 12.867188 -4.910156 12.921875 -4.953125 C 13.003906 -5.046875 13.046875 -5.148438 13.046875 -5.265625 C 13.097656 -5.328125 13.132812 -5.421875 13.15625 -5.546875 C 13.175781 -5.671875 13.195312 -5.835938 13.21875 -6.046875 L 14.078125 -12.125 Z M 8.203125 -12.125 "/></g></g></g><g fill="#ff0000" fill-opacity="1"><g transform="translate(41.3597, 27.326526)"><g><path d="M 0.984375 -16.953125 L 3.890625 -16.953125 C 4.210938 -16.953125 4.5 -16.953125 4.75 -16.953125 C 5 -16.953125 5.203125 -16.925781 5.359375 -16.875 C 5.859375 -16.8125 6.210938 -16.675781 6.421875 -16.46875 C 6.722656 -16.238281 6.875 -15.796875 6.875 -15.140625 C 6.875 -14.910156 6.84375 -14.546875 6.78125 -14.046875 C 6.726562 -13.546875 6.644531 -12.921875 6.53125 -12.171875 L 5.671875 -6.046875 C 5.671875 -5.835938 5.648438 -5.664062 5.609375 -5.53125 C 5.609375 -5.445312 5.613281 -5.367188 5.625 -5.296875 C 5.632812 -5.222656 5.640625 -5.164062 5.640625 -5.125 C 5.660156 -5.007812 5.75 -4.921875 5.90625 -4.859375 C 5.976562 -4.859375 6.09375 -4.847656 6.25 -4.828125 C 6.414062 -4.816406 6.609375 -4.8125 6.828125 -4.8125 L 7.59375 -10.359375 L 8.546875 -16.953125 C 9.273438 -16.953125 9.878906 -16.953125 10.359375 -16.953125 C 10.835938 -16.953125 11.1875 -16.925781 11.40625 -16.875 C 12.070312 -16.8125 12.507812 -16.609375 12.71875 -16.265625 C 12.894531 -16.054688 12.984375 -15.632812 12.984375 -15 C 12.984375 -14.90625 12.984375 -14.796875 12.984375 -14.671875 C 12.984375 -14.546875 12.972656 -14.414062 12.953125 -14.28125 C 12.929688 -14.101562 12.898438 -13.84375 12.859375 -13.5 C 12.828125 -13.15625 12.78125 -12.722656 12.71875 -12.203125 L 11.859375 -6.109375 C 11.835938 -5.953125 11.820312 -5.816406 11.8125 -5.703125 C 11.800781 -5.585938 11.796875 -5.5 11.796875 -5.4375 C 11.796875 -5.226562 11.804688 -5.085938 11.828125 -5.015625 C 11.867188 -4.992188 11.910156 -4.972656 11.953125 -4.953125 C 12.003906 -4.929688 12.0625 -4.898438 12.125 -4.859375 C 12.195312 -4.859375 12.304688 -4.847656 12.453125 -4.828125 C 12.597656 -4.816406 12.785156 -4.8125 13.015625 -4.8125 L 13.765625 -10.109375 L 14.734375 -16.953125 C 15.429688 -16.953125 16.007812 -16.953125 16.46875 -16.953125 C 16.925781 -16.953125 17.269531 -16.925781 17.5 -16.875 C 18.132812 -16.832031 18.566406 -16.695312 18.796875 -16.46875 C 19.085938 -16.238281 19.234375 -15.785156 19.234375 -15.109375 C 19.234375 -14.648438 19.132812 -13.671875 18.9375 -12.171875 L 17.90625 -4.8125 C 17.75 -3.5625 17.613281 -2.707031 17.5 -2.25 C 17.363281 -1.570312 17.132812 -1.050781 16.8125 -0.6875 C 16.46875 -0.34375 15.84375 -0.132812 14.9375 -0.0625 C 14.726562 -0.0390625 14.410156 -0.0234375 13.984375 -0.015625 C 13.566406 -0.00390625 13.03125 0 12.375 0 L 4.8125 0 C 3.3125 0 2.320312 -0.0351562 1.84375 -0.109375 C 1.15625 -0.242188 0.722656 -0.46875 0.546875 -0.78125 C 0.410156 -1.0625 0.34375 -1.425781 0.34375 -1.875 C 0.34375 -1.96875 0.347656 -2.050781 0.359375 -2.125 C 0.367188 -2.207031 0.375 -2.296875 0.375 -2.390625 C 0.394531 -2.597656 0.425781 -2.90625 0.46875 -3.3125 C 0.519531 -3.726562 0.582031 -4.226562 0.65625 -4.8125 L 1.40625 -10.109375 L 2.015625 -14.453125 C 2.035156 -14.585938 2.046875 -14.703125 2.046875 -14.796875 C 2.046875 -14.890625 2.046875 -14.945312 2.046875 -14.96875 C 2.046875 -15.175781 2.023438 -15.320312 1.984375 -15.40625 C 1.929688 -15.570312 1.828125 -15.753906 1.671875 -15.953125 C 1.628906 -16.066406 1.550781 -16.203125 1.4375 -16.359375 C 1.320312 -16.523438 1.171875 -16.722656 0.984375 -16.953125 Z M 0.984375 -16.953125 "/></g></g></g><g fill="#ff0000" fill-opacity="1"><g transform="translate(60.902132, 27.326526)"><g><path d="M 2.046875 -12.09375 C 2.140625 -12.757812 2.21875 -13.300781 2.28125 -13.71875 C 2.351562 -14.144531 2.398438 -14.457031 2.421875 -14.65625 C 2.554688 -15.363281 2.75 -15.851562 3 -16.125 C 3.28125 -16.507812 3.738281 -16.738281 4.375 -16.8125 C 4.832031 -16.882812 5.550781 -16.921875 6.53125 -16.921875 L 16.125 -16.921875 C 16.445312 -16.921875 16.726562 -16.921875 16.96875 -16.921875 C 17.207031 -16.921875 17.40625 -16.90625 17.5625 -16.875 C 18.269531 -16.851562 18.769531 -16.726562 19.0625 -16.5 C 19.40625 -16.269531 19.578125 -15.78125 19.578125 -15.03125 C 19.578125 -14.582031 19.472656 -13.601562 19.265625 -12.09375 L 19.109375 -10.859375 L 18.421875 -6.046875 L 18.25 -4.78125 C 18.15625 -4.070312 18.066406 -3.484375 17.984375 -3.015625 C 17.910156 -2.554688 17.835938 -2.210938 17.765625 -1.984375 C 17.628906 -1.484375 17.457031 -1.082031 17.25 -0.78125 C 16.976562 -0.488281 16.5625 -0.273438 16 -0.140625 C 15.769531 -0.117188 15.378906 -0.0859375 14.828125 -0.046875 C 14.285156 -0.015625 13.582031 0 12.71875 0 L 13.390625 -4.78125 L 13.5625 -6.046875 L 14.25 -10.859375 L 14.421875 -12.09375 L 8.171875 -12.09375 C 8.078125 -12.113281 7.992188 -12.125 7.921875 -12.125 C 7.859375 -12.125 7.789062 -12.125 7.71875 -12.125 C 7.5625 -12.125 7.460938 -12.113281 7.421875 -12.09375 C 7.253906 -12.09375 7.140625 -12.0625 7.078125 -12 C 6.984375 -11.90625 6.898438 -11.765625 6.828125 -11.578125 C 6.828125 -11.492188 6.796875 -11.253906 6.734375 -10.859375 L 6.046875 -6.046875 L 5.875 -4.78125 C 5.71875 -3.570312 5.582031 -2.742188 5.46875 -2.296875 C 5.394531 -1.929688 5.300781 -1.617188 5.1875 -1.359375 C 5.070312 -1.109375 4.945312 -0.894531 4.8125 -0.71875 C 4.519531 -0.375 4 -0.15625 3.25 -0.0625 C 3.019531 -0.0390625 2.675781 -0.0234375 2.21875 -0.015625 C 1.757812 -0.00390625 1.203125 0 0.546875 0 L -1.03125 0 C -0.570312 -0.382812 -0.285156 -0.632812 -0.171875 -0.75 C 0.0976562 -0.976562 0.28125 -1.160156 0.375 -1.296875 C 0.414062 -1.367188 0.445312 -1.429688 0.46875 -1.484375 C 0.5 -1.546875 0.523438 -1.609375 0.546875 -1.671875 C 0.585938 -1.785156 0.632812 -2.023438 0.6875 -2.390625 L 1.03125 -4.78125 L 1.203125 -6.046875 L 1.875 -10.859375 Z M 2.046875 -12.09375 "/></g></g></g><g fill="#ff0000" fill-opacity="1"><g transform="translate(80.786215, 27.326526)"><g><path d="M 8.546875 -23.953125 L 7.828125 -18.71875 L 6.875 -11.890625 L 5.875 -4.78125 C 5.78125 -4.144531 5.695312 -3.613281 5.625 -3.1875 C 5.5625 -2.769531 5.5 -2.445312 5.4375 -2.21875 C 5.300781 -1.5625 5.09375 -1.070312 4.8125 -0.75 C 4.539062 -0.476562 4.117188 -0.273438 3.546875 -0.140625 C 3.078125 -0.0664062 2.085938 -0.03125 0.578125 -0.03125 L -1.03125 -0.03125 C -0.78125 -0.28125 -0.570312 -0.472656 -0.40625 -0.609375 C -0.25 -0.742188 -0.132812 -0.847656 -0.0625 -0.921875 C 0.1875 -1.171875 0.34375 -1.363281 0.40625 -1.5 C 0.457031 -1.570312 0.492188 -1.632812 0.515625 -1.6875 C 0.535156 -1.75 0.554688 -1.8125 0.578125 -1.875 C 0.628906 -2.007812 0.664062 -2.21875 0.6875 -2.5 L 1.578125 -8.84375 L 2.25 -13.5625 L 3 -19.140625 C 3.113281 -19.867188 3.210938 -20.460938 3.296875 -20.921875 C 3.378906 -21.390625 3.441406 -21.738281 3.484375 -21.96875 C 3.640625 -22.5625 3.867188 -23.007812 4.171875 -23.3125 C 4.441406 -23.582031 4.835938 -23.75 5.359375 -23.8125 C 5.609375 -23.863281 5.992188 -23.898438 6.515625 -23.921875 C 7.046875 -23.941406 7.722656 -23.953125 8.546875 -23.953125 Z M 8.546875 -23.953125 "/></g></g></g><g fill="#ff0000" fill-opacity="1"><g transform="translate(88.644182, 27.326526)"><g><path d="M 1.671875 -12.125 C 1.804688 -13.15625 1.910156 -13.828125 1.984375 -14.140625 C 2.191406 -15.191406 2.460938 -15.890625 2.796875 -16.234375 C 3.117188 -16.578125 3.609375 -16.78125 4.265625 -16.84375 C 4.515625 -16.894531 4.867188 -16.921875 5.328125 -16.921875 C 5.785156 -16.921875 6.359375 -16.921875 7.046875 -16.921875 L 14.90625 -16.921875 C 15.738281 -16.921875 16.421875 -16.90625 16.953125 -16.875 C 17.492188 -16.851562 17.878906 -16.8125 18.109375 -16.75 C 18.515625 -16.675781 18.8125 -16.492188 19 -16.203125 C 19.15625 -15.972656 19.234375 -15.59375 19.234375 -15.0625 L 19.234375 -14.734375 C 19.234375 -14.296875 19.132812 -13.425781 18.9375 -12.125 L 17.90625 -4.8125 C 17.75 -3.601562 17.613281 -2.773438 17.5 -2.328125 C 17.363281 -1.679688 17.191406 -1.210938 16.984375 -0.921875 C 16.734375 -0.535156 16.273438 -0.273438 15.609375 -0.140625 C 15.390625 -0.117188 15.023438 -0.0859375 14.515625 -0.046875 C 14.015625 -0.015625 13.378906 0 12.609375 0 L 4.578125 0 C 3.847656 0 3.242188 -0.015625 2.765625 -0.046875 C 2.285156 -0.0859375 1.921875 -0.117188 1.671875 -0.140625 C 1.171875 -0.222656 0.804688 -0.414062 0.578125 -0.71875 C 0.515625 -0.851562 0.457031 -1.015625 0.40625 -1.203125 C 0.363281 -1.398438 0.34375 -1.613281 0.34375 -1.84375 L 0.34375 -2.25 C 0.382812 -2.707031 0.488281 -3.5625 0.65625 -4.8125 C 0.71875 -5.269531 0.800781 -5.820312 0.90625 -6.46875 C 1.007812 -7.125 1.117188 -7.875 1.234375 -8.71875 C 1.367188 -9.582031 1.46875 -10.289062 1.53125 -10.84375 C 1.601562 -11.40625 1.648438 -11.832031 1.671875 -12.125 Z M 8.203125 -12.125 C 7.929688 -12.125 7.703125 -12.125 7.515625 -12.125 C 7.335938 -12.125 7.203125 -12.113281 7.109375 -12.09375 C 6.878906 -12.050781 6.71875 -11.984375 6.625 -11.890625 C 6.5625 -11.828125 6.492188 -11.632812 6.421875 -11.3125 C 6.421875 -11.289062 6.414062 -11.238281 6.40625 -11.15625 C 6.394531 -11.070312 6.378906 -10.972656 6.359375 -10.859375 L 5.5 -4.8125 L 12.609375 -4.8125 C 12.765625 -4.863281 12.867188 -4.910156 12.921875 -4.953125 C 13.003906 -5.046875 13.046875 -5.148438 13.046875 -5.265625 C 13.097656 -5.328125 13.132812 -5.421875 13.15625 -5.546875 C 13.175781 -5.671875 13.195312 -5.835938 13.21875 -6.046875 L 14.078125 -12.125 Z M 8.203125 -12.125 "/></g></g></g><g fill="#ff0000" fill-opacity="1"><g transform="translate(108.186611, 27.326526)"><g><path d="M 15.40625 -20.984375 C 15.476562 -21.410156 15.582031 -21.773438 15.71875 -22.078125 C 15.925781 -22.535156 16.203125 -22.875 16.546875 -23.09375 C 16.835938 -23.320312 17.164062 -23.484375 17.53125 -23.578125 C 17.738281 -23.648438 17.953125 -23.707031 18.171875 -23.75 C 18.398438 -23.789062 18.640625 -23.828125 18.890625 -23.859375 C 19.078125 -23.878906 19.269531 -23.894531 19.46875 -23.90625 C 19.675781 -23.914062 19.894531 -23.921875 20.125 -23.921875 L 21.765625 -23.921875 C 21.398438 -23.578125 21.128906 -23.335938 20.953125 -23.203125 C 20.859375 -23.109375 20.773438 -23.023438 20.703125 -22.953125 C 20.640625 -22.890625 20.582031 -22.828125 20.53125 -22.765625 C 20.445312 -22.648438 20.367188 -22.5 20.296875 -22.3125 C 20.296875 -22.195312 20.265625 -22.003906 20.203125 -21.734375 L 19.578125 -16.921875 L 18.078125 -6.078125 L 17.90625 -4.8125 C 17.832031 -4.226562 17.757812 -3.726562 17.6875 -3.3125 C 17.625 -2.90625 17.570312 -2.597656 17.53125 -2.390625 C 17.394531 -1.660156 17.203125 -1.132812 16.953125 -0.8125 C 16.648438 -0.40625 16.054688 -0.15625 15.171875 -0.0625 C 14.941406 -0.0390625 14.597656 -0.0234375 14.140625 -0.015625 C 13.691406 -0.00390625 13.125 0 12.4375 0 L 4.75 0 C 4.175781 0 3.695312 -0.00390625 3.3125 -0.015625 C 2.925781 -0.0234375 2.628906 -0.03125 2.421875 -0.03125 C 1.378906 -0.101562 0.742188 -0.378906 0.515625 -0.859375 C 0.398438 -1.128906 0.34375 -1.457031 0.34375 -1.84375 C 0.34375 -1.957031 0.347656 -2.066406 0.359375 -2.171875 C 0.367188 -2.273438 0.375 -2.382812 0.375 -2.5 C 0.414062 -2.925781 0.519531 -3.695312 0.6875 -4.8125 C 0.75 -5.269531 0.828125 -5.820312 0.921875 -6.46875 C 1.015625 -7.125 1.117188 -7.875 1.234375 -8.71875 C 1.367188 -9.582031 1.472656 -10.289062 1.546875 -10.84375 C 1.628906 -11.40625 1.679688 -11.832031 1.703125 -12.125 C 1.890625 -13.46875 2.03125 -14.335938 2.125 -14.734375 C 2.300781 -15.503906 2.539062 -16.023438 2.84375 -16.296875 C 3.113281 -16.566406 3.554688 -16.738281 4.171875 -16.8125 C 4.648438 -16.882812 5.515625 -16.921875 6.765625 -16.921875 L 14.734375 -16.921875 Z M 7.96875 -12.125 C 7.894531 -12.125 7.800781 -12.125 7.6875 -12.125 C 7.570312 -12.125 7.425781 -12.113281 7.25 -12.09375 C 7.082031 -12.09375 6.976562 -12.082031 6.9375 -12.0625 C 6.863281 -12.0625 6.785156 -12.015625 6.703125 -11.921875 C 6.628906 -11.859375 6.5625 -11.722656 6.5 -11.515625 C 6.5 -11.421875 6.460938 -11.203125 6.390625 -10.859375 L 5.53125 -4.8125 L 12.40625 -4.8125 C 12.65625 -4.863281 12.8125 -4.929688 12.875 -5.015625 C 12.945312 -5.085938 13.003906 -5.203125 13.046875 -5.359375 C 13.097656 -5.429688 13.132812 -5.53125 13.15625 -5.65625 C 13.175781 -5.78125 13.195312 -5.921875 13.21875 -6.078125 L 14.046875 -12.125 Z M 7.96875 -12.125 "/></g></g></g><g fill="#ff0000" fill-opacity="1"><g transform="translate(127.865702, 27.326526)"><g><path d="M 7.3125 -16.921875 L 14.765625 -16.921875 C 15.378906 -16.921875 15.890625 -16.921875 16.296875 -16.921875 C 16.710938 -16.921875 17.019531 -16.90625 17.21875 -16.875 C 17.96875 -16.851562 18.484375 -16.71875 18.765625 -16.46875 C 19.078125 -16.238281 19.234375 -15.769531 19.234375 -15.0625 C 19.234375 -14.976562 19.234375 -14.875 19.234375 -14.75 C 19.234375 -14.625 19.222656 -14.492188 19.203125 -14.359375 C 19.179688 -14.148438 19.144531 -13.863281 19.09375 -13.5 C 19.050781 -13.132812 19 -12.675781 18.9375 -12.125 L 18.71875 -10.859375 C 18.539062 -9.472656 18.394531 -8.566406 18.28125 -8.140625 C 18.144531 -7.492188 17.925781 -7.023438 17.625 -6.734375 C 17.3125 -6.429688 16.820312 -6.238281 16.15625 -6.15625 C 15.726562 -6.082031 14.910156 -6.046875 13.703125 -6.046875 L 6.015625 -6.046875 C 5.921875 -6.046875 5.828125 -6 5.734375 -5.90625 C 5.691406 -5.863281 5.648438 -5.726562 5.609375 -5.5 C 5.609375 -5.382812 5.570312 -5.15625 5.5 -4.8125 L 13.015625 -4.8125 C 14.359375 -4.8125 15.210938 -4.78125 15.578125 -4.71875 C 16.128906 -4.644531 16.503906 -4.472656 16.703125 -4.203125 C 16.953125 -3.953125 17.101562 -3.453125 17.15625 -2.703125 C 17.195312 -2.492188 17.21875 -2.210938 17.21875 -1.859375 C 17.21875 -1.503906 17.21875 -1.078125 17.21875 -0.578125 L 17.21875 0 L 4.3125 0 C 3.625 0 3.054688 -0.015625 2.609375 -0.046875 C 2.171875 -0.0859375 1.828125 -0.117188 1.578125 -0.140625 C 1.097656 -0.273438 0.753906 -0.488281 0.546875 -0.78125 C 0.410156 -1.0625 0.34375 -1.414062 0.34375 -1.84375 L 0.34375 -2.125 C 0.363281 -2.53125 0.46875 -3.425781 0.65625 -4.8125 L 1.671875 -12.125 L 2.078125 -14.59375 C 2.242188 -15.382812 2.484375 -15.941406 2.796875 -16.265625 C 3.160156 -16.585938 3.640625 -16.78125 4.234375 -16.84375 C 4.484375 -16.894531 4.863281 -16.921875 5.375 -16.921875 C 5.894531 -16.921875 6.539062 -16.921875 7.3125 -16.921875 Z M 7.375 -12.125 C 7.039062 -12.125 6.847656 -12.113281 6.796875 -12.09375 C 6.753906 -12.070312 6.6875 -12.015625 6.59375 -11.921875 C 6.550781 -11.835938 6.503906 -11.738281 6.453125 -11.625 C 6.453125 -11.53125 6.421875 -11.273438 6.359375 -10.859375 L 13.421875 -10.859375 C 13.609375 -10.890625 13.75 -10.945312 13.84375 -11.03125 C 13.90625 -11.101562 13.9375 -11.207031 13.9375 -11.34375 C 13.988281 -11.5 14.023438 -11.757812 14.046875 -12.125 Z M 7.375 -12.125 "/></g></g></g><g fill="#ff0000" fill-opacity="1"><g transform="translate(146.895657, 27.326526)"><g><path d="M 1.90625 -12.125 C 2.019531 -12.789062 2.113281 -13.335938 2.1875 -13.765625 C 2.257812 -14.203125 2.304688 -14.523438 2.328125 -14.734375 C 2.503906 -15.503906 2.742188 -16.023438 3.046875 -16.296875 C 3.316406 -16.566406 3.703125 -16.738281 4.203125 -16.8125 C 4.453125 -16.851562 4.78125 -16.882812 5.1875 -16.90625 C 5.601562 -16.9375 6.109375 -16.953125 6.703125 -16.953125 L 19.8125 -16.953125 C 19.726562 -16.242188 19.644531 -15.65625 19.5625 -15.1875 C 19.476562 -14.71875 19.40625 -14.359375 19.34375 -14.109375 C 19.15625 -13.429688 18.90625 -12.96875 18.59375 -12.71875 C 18.425781 -12.570312 18.21875 -12.457031 17.96875 -12.375 C 17.71875 -12.300781 17.410156 -12.242188 17.046875 -12.203125 C 16.816406 -12.179688 16.472656 -12.160156 16.015625 -12.140625 C 15.566406 -12.128906 14.976562 -12.125 14.25 -12.125 L 8.4375 -12.125 C 8.1875 -12.125 7.972656 -12.125 7.796875 -12.125 C 7.628906 -12.125 7.503906 -12.113281 7.421875 -12.09375 C 7.234375 -12.09375 7.070312 -12.046875 6.9375 -11.953125 C 6.863281 -11.890625 6.796875 -11.753906 6.734375 -11.546875 C 6.710938 -11.503906 6.6875 -11.414062 6.65625 -11.28125 C 6.632812 -11.144531 6.601562 -10.960938 6.5625 -10.734375 L 5.734375 -4.8125 C 5.648438 -4.132812 5.570312 -3.566406 5.5 -3.109375 C 5.4375 -2.648438 5.367188 -2.296875 5.296875 -2.046875 C 5.160156 -1.503906 4.988281 -1.09375 4.78125 -0.8125 C 4.507812 -0.519531 4.113281 -0.304688 3.59375 -0.171875 C 3.425781 -0.148438 3.207031 -0.125 2.9375 -0.09375 C 2.664062 -0.0703125 2.347656 -0.0507812 1.984375 -0.03125 C 1.828125 -0.03125 1.617188 -0.0234375 1.359375 -0.015625 C 1.109375 -0.00390625 0.789062 0 0.40625 0 L -1.03125 0 C -0.78125 -0.25 -0.582031 -0.445312 -0.4375 -0.59375 C -0.300781 -0.738281 -0.203125 -0.859375 -0.140625 -0.953125 C 0.160156 -1.253906 0.332031 -1.484375 0.375 -1.640625 C 0.414062 -1.710938 0.441406 -1.785156 0.453125 -1.859375 C 0.472656 -1.941406 0.492188 -2.03125 0.515625 -2.125 C 0.554688 -2.257812 0.585938 -2.507812 0.609375 -2.875 Z M 1.90625 -12.125 "/></g></g></g><g clip-path="url(#5bab522245)"><g fill="#00ffff" fill-opacity="1"><g transform="translate(0.504527, 27.825979)"><g><path d="M 15.40625 -20.984375 C 15.476562 -21.410156 15.582031 -21.773438 15.71875 -22.078125 C 15.925781 -22.535156 16.203125 -22.875 16.546875 -23.09375 C 16.835938 -23.320312 17.164062 -23.484375 17.53125 -23.578125 C 17.738281 -23.648438 17.953125 -23.707031 18.171875 -23.75 C 18.398438 -23.789062 18.640625 -23.828125 18.890625 -23.859375 C 19.078125 -23.878906 19.269531 -23.894531 19.46875 -23.90625 C 19.675781 -23.914062 19.894531 -23.921875 20.125 -23.921875 L 21.765625 -23.921875 C 21.398438 -23.578125 21.128906 -23.335938 20.953125 -23.203125 C 20.859375 -23.109375 20.773438 -23.023438 20.703125 -22.953125 C 20.640625 -22.890625 20.582031 -22.828125 20.53125 -22.765625 C 20.445312 -22.648438 20.367188 -22.5 20.296875 -22.3125 C 20.296875 -22.195312 20.265625 -22.003906 20.203125 -21.734375 L 19.578125 -16.921875 L 18.078125 -6.078125 L 17.90625 -4.8125 C 17.832031 -4.226562 17.757812 -3.726562 17.6875 -3.3125 C 17.625 -2.90625 17.570312 -2.597656 17.53125 -2.390625 C 17.394531 -1.660156 17.203125 -1.132812 16.953125 -0.8125 C 16.648438 -0.40625 16.054688 -0.15625 15.171875 -0.0625 C 14.941406 -0.0390625 14.597656 -0.0234375 14.140625 -0.015625 C 13.691406 -0.00390625 13.125 0 12.4375 0 L 4.75 0 C 4.175781 0 3.695312 -0.00390625 3.3125 -0.015625 C 2.925781 -0.0234375 2.628906 -0.03125 2.421875 -0.03125 C 1.378906 -0.101562 0.742188 -0.378906 0.515625 -0.859375 C 0.398438 -1.128906 0.34375 -1.457031 0.34375 -1.84375 C 0.34375 -1.957031 0.347656 -2.066406 0.359375 -2.171875 C 0.367188 -2.273438 0.375 -2.382812 0.375 -2.5 C 0.414062 -2.925781 0.519531 -3.695312 0.6875 -4.8125 C 0.75 -5.269531 0.828125 -5.820312 0.921875 -6.46875 C 1.015625 -7.125 1.117188 -7.875 1.234375 -8.71875 C 1.367188 -9.582031 1.472656 -10.289062 1.546875 -10.84375 C 1.628906 -11.40625 1.679688 -11.832031 1.703125 -12.125 C 1.890625 -13.46875 2.03125 -14.335938 2.125 -14.734375 C 2.300781 -15.503906 2.539062 -16.023438 2.84375 -16.296875 C 3.113281 -16.566406 3.554688 -16.738281 4.171875 -16.8125 C 4.648438 -16.882812 5.515625 -16.921875 6.765625 -16.921875 L 14.734375 -16.921875 Z M 7.96875 -12.125 C 7.894531 -12.125 7.800781 -12.125 7.6875 -12.125 C 7.570312 -12.125 7.425781 -12.113281 7.25 -12.09375 C 7.082031 -12.09375 6.976562 -12.082031 6.9375 -12.0625 C 6.863281 -12.0625 6.785156 -12.015625 6.703125 -11.921875 C 6.628906 -11.859375 6.5625 -11.722656 6.5 -11.515625 C 6.5 -11.421875 6.460938 -11.203125 6.390625 -10.859375 L 5.53125 -4.8125 L 12.40625 -4.8125 C 12.65625 -4.863281 12.8125 -4.929688 12.875 -5.015625 C 12.945312 -5.085938 13.003906 -5.203125 13.046875 -5.359375 C 13.097656 -5.429688 13.132812 -5.53125 13.15625 -5.65625 C 13.175781 -5.78125 13.195312 -5.921875 13.21875 -6.078125 L 14.046875 -12.125 Z M 7.96875 -12.125 "/></g></g></g></g><g fill="#00ffff" fill-opacity="1"><g transform="translate(20.183618, 27.825979)"><g><path d="M 1.671875 -12.125 C 1.804688 -13.15625 1.910156 -13.828125 1.984375 -14.140625 C 2.191406 -15.191406 2.460938 -15.890625 2.796875 -16.234375 C 3.117188 -16.578125 3.609375 -16.78125 4.265625 -16.84375 C 4.515625 -16.894531 4.867188 -16.921875 5.328125 -16.921875 C 5.785156 -16.921875 6.359375 -16.921875 7.046875 -16.921875 L 14.90625 -16.921875 C 15.738281 -16.921875 16.421875 -16.90625 16.953125 -16.875 C 17.492188 -16.851562 17.878906 -16.8125 18.109375 -16.75 C 18.515625 -16.675781 18.8125 -16.492188 19 -16.203125 C 19.15625 -15.972656 19.234375 -15.59375 19.234375 -15.0625 L 19.234375 -14.734375 C 19.234375 -14.296875 19.132812 -13.425781 18.9375 -12.125 L 17.90625 -4.8125 C 17.75 -3.601562 17.613281 -2.773438 17.5 -2.328125 C 17.363281 -1.679688 17.191406 -1.210938 16.984375 -0.921875 C 16.734375 -0.535156 16.273438 -0.273438 15.609375 -0.140625 C 15.390625 -0.117188 15.023438 -0.0859375 14.515625 -0.046875 C 14.015625 -0.015625 13.378906 0 12.609375 0 L 4.578125 0 C 3.847656 0 3.242188 -0.015625 2.765625 -0.046875 C 2.285156 -0.0859375 1.921875 -0.117188 1.671875 -0.140625 C 1.171875 -0.222656 0.804688 -0.414062 0.578125 -0.71875 C 0.515625 -0.851562 0.457031 -1.015625 0.40625 -1.203125 C 0.363281 -1.398438 0.34375 -1.613281 0.34375 -1.84375 L 0.34375 -2.25 C 0.382812 -2.707031 0.488281 -3.5625 0.65625 -4.8125 C 0.71875 -5.269531 0.800781 -5.820312 0.90625 -6.46875 C 1.007812 -7.125 1.117188 -7.875 1.234375 -8.71875 C 1.367188 -9.582031 1.46875 -10.289062 1.53125 -10.84375 C 1.601562 -11.40625 1.648438 -11.832031 1.671875 -12.125 Z M 8.203125 -12.125 C 7.929688 -12.125 7.703125 -12.125 7.515625 -12.125 C 7.335938 -12.125 7.203125 -12.113281 7.109375 -12.09375 C 6.878906 -12.050781 6.71875 -11.984375 6.625 -11.890625 C 6.5625 -11.828125 6.492188 -11.632812 6.421875 -11.3125 C 6.421875 -11.289062 6.414062 -11.238281 6.40625 -11.15625 C 6.394531 -11.070312 6.378906 -10.972656 6.359375 -10.859375 L 5.5 -4.8125 L 12.609375 -4.8125 C 12.765625 -4.863281 12.867188 -4.910156 12.921875 -4.953125 C 13.003906 -5.046875 13.046875 -5.148438 13.046875 -5.265625 C 13.097656 -5.328125 13.132812 -5.421875 13.15625 -5.546875 C 13.175781 -5.671875 13.195312 -5.835938 13.21875 -6.046875 L 14.078125 -12.125 Z M 8.203125 -12.125 "/></g></g></g><g fill="#00ffff" fill-opacity="1"><g transform="translate(39.726047, 27.825979)"><g><path d="M 0.984375 -16.953125 L 3.890625 -16.953125 C 4.210938 -16.953125 4.5 -16.953125 4.75 -16.953125 C 5 -16.953125 5.203125 -16.925781 5.359375 -16.875 C 5.859375 -16.8125 6.210938 -16.675781 6.421875 -16.46875 C 6.722656 -16.238281 6.875 -15.796875 6.875 -15.140625 C 6.875 -14.910156 6.84375 -14.546875 6.78125 -14.046875 C 6.726562 -13.546875 6.644531 -12.921875 6.53125 -12.171875 L 5.671875 -6.046875 C 5.671875 -5.835938 5.648438 -5.664062 5.609375 -5.53125 C 5.609375 -5.445312 5.613281 -5.367188 5.625 -5.296875 C 5.632812 -5.222656 5.640625 -5.164062 5.640625 -5.125 C 5.660156 -5.007812 5.75 -4.921875 5.90625 -4.859375 C 5.976562 -4.859375 6.09375 -4.847656 6.25 -4.828125 C 6.414062 -4.816406 6.609375 -4.8125 6.828125 -4.8125 L 7.59375 -10.359375 L 8.546875 -16.953125 C 9.273438 -16.953125 9.878906 -16.953125 10.359375 -16.953125 C 10.835938 -16.953125 11.1875 -16.925781 11.40625 -16.875 C 12.070312 -16.8125 12.507812 -16.609375 12.71875 -16.265625 C 12.894531 -16.054688 12.984375 -15.632812 12.984375 -15 C 12.984375 -14.90625 12.984375 -14.796875 12.984375 -14.671875 C 12.984375 -14.546875 12.972656 -14.414062 12.953125 -14.28125 C 12.929688 -14.101562 12.898438 -13.84375 12.859375 -13.5 C 12.828125 -13.15625 12.78125 -12.722656 12.71875 -12.203125 L 11.859375 -6.109375 C 11.835938 -5.953125 11.820312 -5.816406 11.8125 -5.703125 C 11.800781 -5.585938 11.796875 -5.5 11.796875 -5.4375 C 11.796875 -5.226562 11.804688 -5.085938 11.828125 -5.015625 C 11.867188 -4.992188 11.910156 -4.972656 11.953125 -4.953125 C 12.003906 -4.929688 12.0625 -4.898438 12.125 -4.859375 C 12.195312 -4.859375 12.304688 -4.847656 12.453125 -4.828125 C 12.597656 -4.816406 12.785156 -4.8125 13.015625 -4.8125 L 13.765625 -10.109375 L 14.734375 -16.953125 C 15.429688 -16.953125 16.007812 -16.953125 16.46875 -16.953125 C 16.925781 -16.953125 17.269531 -16.925781 17.5 -16.875 C 18.132812 -16.832031 18.566406 -16.695312 18.796875 -16.46875 C 19.085938 -16.238281 19.234375 -15.785156 19.234375 -15.109375 C 19.234375 -14.648438 19.132812 -13.671875 18.9375 -12.171875 L 17.90625 -4.8125 C 17.75 -3.5625 17.613281 -2.707031 17.5 -2.25 C 17.363281 -1.570312 17.132812 -1.050781 16.8125 -0.6875 C 16.46875 -0.34375 15.84375 -0.132812 14.9375 -0.0625 C 14.726562 -0.0390625 14.410156 -0.0234375 13.984375 -0.015625 C 13.566406 -0.00390625 13.03125 0 12.375 0 L 4.8125 0 C 3.3125 0 2.320312 -0.0351562 1.84375 -0.109375 C 1.15625 -0.242188 0.722656 -0.46875 0.546875 -0.78125 C 0.410156 -1.0625 0.34375 -1.425781 0.34375 -1.875 C 0.34375 -1.96875 0.347656 -2.050781 0.359375 -2.125 C 0.367188 -2.207031 0.375 -2.296875 0.375 -2.390625 C 0.394531 -2.597656 0.425781 -2.90625 0.46875 -3.3125 C 0.519531 -3.726562 0.582031 -4.226562 0.65625 -4.8125 L 1.40625 -10.109375 L 2.015625 -14.453125 C 2.035156 -14.585938 2.046875 -14.703125 2.046875 -14.796875 C 2.046875 -14.890625 2.046875 -14.945312 2.046875 -14.96875 C 2.046875 -15.175781 2.023438 -15.320312 1.984375 -15.40625 C 1.929688 -15.570312 1.828125 -15.753906 1.671875 -15.953125 C 1.628906 -16.066406 1.550781 -16.203125 1.4375 -16.359375 C 1.320312 -16.523438 1.171875 -16.722656 0.984375 -16.953125 Z M 0.984375 -16.953125 "/></g></g></g><g fill="#00ffff" fill-opacity="1"><g transform="translate(59.26848, 27.825979)"><g><path d="M 2.046875 -12.09375 C 2.140625 -12.757812 2.21875 -13.300781 2.28125 -13.71875 C 2.351562 -14.144531 2.398438 -14.457031 2.421875 -14.65625 C 2.554688 -15.363281 2.75 -15.851562 3 -16.125 C 3.28125 -16.507812 3.738281 -16.738281 4.375 -16.8125 C 4.832031 -16.882812 5.550781 -16.921875 6.53125 -16.921875 L 16.125 -16.921875 C 16.445312 -16.921875 16.726562 -16.921875 16.96875 -16.921875 C 17.207031 -16.921875 17.40625 -16.90625 17.5625 -16.875 C 18.269531 -16.851562 18.769531 -16.726562 19.0625 -16.5 C 19.40625 -16.269531 19.578125 -15.78125 19.578125 -15.03125 C 19.578125 -14.582031 19.472656 -13.601562 19.265625 -12.09375 L 19.109375 -10.859375 L 18.421875 -6.046875 L 18.25 -4.78125 C 18.15625 -4.070312 18.066406 -3.484375 17.984375 -3.015625 C 17.910156 -2.554688 17.835938 -2.210938 17.765625 -1.984375 C 17.628906 -1.484375 17.457031 -1.082031 17.25 -0.78125 C 16.976562 -0.488281 16.5625 -0.273438 16 -0.140625 C 15.769531 -0.117188 15.378906 -0.0859375 14.828125 -0.046875 C 14.285156 -0.015625 13.582031 0 12.71875 0 L 13.390625 -4.78125 L 13.5625 -6.046875 L 14.25 -10.859375 L 14.421875 -12.09375 L 8.171875 -12.09375 C 8.078125 -12.113281 7.992188 -12.125 7.921875 -12.125 C 7.859375 -12.125 7.789062 -12.125 7.71875 -12.125 C 7.5625 -12.125 7.460938 -12.113281 7.421875 -12.09375 C 7.253906 -12.09375 7.140625 -12.0625 7.078125 -12 C 6.984375 -11.90625 6.898438 -11.765625 6.828125 -11.578125 C 6.828125 -11.492188 6.796875 -11.253906 6.734375 -10.859375 L 6.046875 -6.046875 L 5.875 -4.78125 C 5.71875 -3.570312 5.582031 -2.742188 5.46875 -2.296875 C 5.394531 -1.929688 5.300781 -1.617188 5.1875 -1.359375 C 5.070312 -1.109375 4.945312 -0.894531 4.8125 -0.71875 C 4.519531 -0.375 4 -0.15625 3.25 -0.0625 C 3.019531 -0.0390625 2.675781 -0.0234375 2.21875 -0.015625 C 1.757812 -0.00390625 1.203125 0 0.546875 0 L -1.03125 0 C -0.570312 -0.382812 -0.285156 -0.632812 -0.171875 -0.75 C 0.0976562 -0.976562 0.28125 -1.160156 0.375 -1.296875 C 0.414062 -1.367188 0.445312 -1.429688 0.46875 -1.484375 C 0.5 -1.546875 0.523438 -1.609375 0.546875 -1.671875 C 0.585938 -1.785156 0.632812 -2.023438 0.6875 -2.390625 L 1.03125 -4.78125 L 1.203125 -6.046875 L 1.875 -10.859375 Z M 2.046875 -12.09375 "/></g></g></g><g fill="#00ffff" fill-opacity="1"><g transform="translate(79.152563, 27.825979)"><g><path d="M 8.546875 -23.953125 L 7.828125 -18.71875 L 6.875 -11.890625 L 5.875 -4.78125 C 5.78125 -4.144531 5.695312 -3.613281 5.625 -3.1875 C 5.5625 -2.769531 5.5 -2.445312 5.4375 -2.21875 C 5.300781 -1.5625 5.09375 -1.070312 4.8125 -0.75 C 4.539062 -0.476562 4.117188 -0.273438 3.546875 -0.140625 C 3.078125 -0.0664062 2.085938 -0.03125 0.578125 -0.03125 L -1.03125 -0.03125 C -0.78125 -0.28125 -0.570312 -0.472656 -0.40625 -0.609375 C -0.25 -0.742188 -0.132812 -0.847656 -0.0625 -0.921875 C 0.1875 -1.171875 0.34375 -1.363281 0.40625 -1.5 C 0.457031 -1.570312 0.492188 -1.632812 0.515625 -1.6875 C 0.535156 -1.75 0.554688 -1.8125 0.578125 -1.875 C 0.628906 -2.007812 0.664062 -2.21875 0.6875 -2.5 L 1.578125 -8.84375 L 2.25 -13.5625 L 3 -19.140625 C 3.113281 -19.867188 3.210938 -20.460938 3.296875 -20.921875 C 3.378906 -21.390625 3.441406 -21.738281 3.484375 -21.96875 C 3.640625 -22.5625 3.867188 -23.007812 4.171875 -23.3125 C 4.441406 -23.582031 4.835938 -23.75 5.359375 -23.8125 C 5.609375 -23.863281 5.992188 -23.898438 6.515625 -23.921875 C 7.046875 -23.941406 7.722656 -23.953125 8.546875 -23.953125 Z M 8.546875 -23.953125 "/></g></g></g><g fill="#00ffff" fill-opacity="1"><g transform="translate(87.01053, 27.825979)"><g><path d="M 1.671875 -12.125 C 1.804688 -13.15625 1.910156 -13.828125 1.984375 -14.140625 C 2.191406 -15.191406 2.460938 -15.890625 2.796875 -16.234375 C 3.117188 -16.578125 3.609375 -16.78125 4.265625 -16.84375 C 4.515625 -16.894531 4.867188 -16.921875 5.328125 -16.921875 C 5.785156 -16.921875 6.359375 -16.921875 7.046875 -16.921875 L 14.90625 -16.921875 C 15.738281 -16.921875 16.421875 -16.90625 16.953125 -16.875 C 17.492188 -16.851562 17.878906 -16.8125 18.109375 -16.75 C 18.515625 -16.675781 18.8125 -16.492188 19 -16.203125 C 19.15625 -15.972656 19.234375 -15.59375 19.234375 -15.0625 L 19.234375 -14.734375 C 19.234375 -14.296875 19.132812 -13.425781 18.9375 -12.125 L 17.90625 -4.8125 C 17.75 -3.601562 17.613281 -2.773438 17.5 -2.328125 C 17.363281 -1.679688 17.191406 -1.210938 16.984375 -0.921875 C 16.734375 -0.535156 16.273438 -0.273438 15.609375 -0.140625 C 15.390625 -0.117188 15.023438 -0.0859375 14.515625 -0.046875 C 14.015625 -0.015625 13.378906 0 12.609375 0 L 4.578125 0 C 3.847656 0 3.242188 -0.015625 2.765625 -0.046875 C 2.285156 -0.0859375 1.921875 -0.117188 1.671875 -0.140625 C 1.171875 -0.222656 0.804688 -0.414062 0.578125 -0.71875 C 0.515625 -0.851562 0.457031 -1.015625 0.40625 -1.203125 C 0.363281 -1.398438 0.34375 -1.613281 0.34375 -1.84375 L 0.34375 -2.25 C 0.382812 -2.707031 0.488281 -3.5625 0.65625 -4.8125 C 0.71875 -5.269531 0.800781 -5.820312 0.90625 -6.46875 C 1.007812 -7.125 1.117188 -7.875 1.234375 -8.71875 C 1.367188 -9.582031 1.46875 -10.289062 1.53125 -10.84375 C 1.601562 -11.40625 1.648438 -11.832031 1.671875 -12.125 Z M 8.203125 -12.125 C 7.929688 -12.125 7.703125 -12.125 7.515625 -12.125 C 7.335938 -12.125 7.203125 -12.113281 7.109375 -12.09375 C 6.878906 -12.050781 6.71875 -11.984375 6.625 -11.890625 C 6.5625 -11.828125 6.492188 -11.632812 6.421875 -11.3125 C 6.421875 -11.289062 6.414062 -11.238281 6.40625 -11.15625 C 6.394531 -11.070312 6.378906 -10.972656 6.359375 -10.859375 L 5.5 -4.8125 L 12.609375 -4.8125 C 12.765625 -4.863281 12.867188 -4.910156 12.921875 -4.953125 C 13.003906 -5.046875 13.046875 -5.148438 13.046875 -5.265625 C 13.097656 -5.328125 13.132812 -5.421875 13.15625 -5.546875 C 13.175781 -5.671875 13.195312 -5.835938 13.21875 -6.046875 L 14.078125 -12.125 Z M 8.203125 -12.125 "/></g></g></g><g fill="#00ffff" fill-opacity="1"><g transform="translate(106.552959, 27.825979)"><g><path d="M 15.40625 -20.984375 C 15.476562 -21.410156 15.582031 -21.773438 15.71875 -22.078125 C 15.925781 -22.535156 16.203125 -22.875 16.546875 -23.09375 C 16.835938 -23.320312 17.164062 -23.484375 17.53125 -23.578125 C 17.738281 -23.648438 17.953125 -23.707031 18.171875 -23.75 C 18.398438 -23.789062 18.640625 -23.828125 18.890625 -23.859375 C 19.078125 -23.878906 19.269531 -23.894531 19.46875 -23.90625 C 19.675781 -23.914062 19.894531 -23.921875 20.125 -23.921875 L 21.765625 -23.921875 C 21.398438 -23.578125 21.128906 -23.335938 20.953125 -23.203125 C 20.859375 -23.109375 20.773438 -23.023438 20.703125 -22.953125 C 20.640625 -22.890625 20.582031 -22.828125 20.53125 -22.765625 C 20.445312 -22.648438 20.367188 -22.5 20.296875 -22.3125 C 20.296875 -22.195312 20.265625 -22.003906 20.203125 -21.734375 L 19.578125 -16.921875 L 18.078125 -6.078125 L 17.90625 -4.8125 C 17.832031 -4.226562 17.757812 -3.726562 17.6875 -3.3125 C 17.625 -2.90625 17.570312 -2.597656 17.53125 -2.390625 C 17.394531 -1.660156 17.203125 -1.132812 16.953125 -0.8125 C 16.648438 -0.40625 16.054688 -0.15625 15.171875 -0.0625 C 14.941406 -0.0390625 14.597656 -0.0234375 14.140625 -0.015625 C 13.691406 -0.00390625 13.125 0 12.4375 0 L 4.75 0 C 4.175781 0 3.695312 -0.00390625 3.3125 -0.015625 C 2.925781 -0.0234375 2.628906 -0.03125 2.421875 -0.03125 C 1.378906 -0.101562 0.742188 -0.378906 0.515625 -0.859375 C 0.398438 -1.128906 0.34375 -1.457031 0.34375 -1.84375 C 0.34375 -1.957031 0.347656 -2.066406 0.359375 -2.171875 C 0.367188 -2.273438 0.375 -2.382812 0.375 -2.5 C 0.414062 -2.925781 0.519531 -3.695312 0.6875 -4.8125 C 0.75 -5.269531 0.828125 -5.820312 0.921875 -6.46875 C 1.015625 -7.125 1.117188 -7.875 1.234375 -8.71875 C 1.367188 -9.582031 1.472656 -10.289062 1.546875 -10.84375 C 1.628906 -11.40625 1.679688 -11.832031 1.703125 -12.125 C 1.890625 -13.46875 2.03125 -14.335938 2.125 -14.734375 C 2.300781 -15.503906 2.539062 -16.023438 2.84375 -16.296875 C 3.113281 -16.566406 3.554688 -16.738281 4.171875 -16.8125 C 4.648438 -16.882812 5.515625 -16.921875 6.765625 -16.921875 L 14.734375 -16.921875 Z M 7.96875 -12.125 C 7.894531 -12.125 7.800781 -12.125 7.6875 -12.125 C 7.570312 -12.125 7.425781 -12.113281 7.25 -12.09375 C 7.082031 -12.09375 6.976562 -12.082031 6.9375 -12.0625 C 6.863281 -12.0625 6.785156 -12.015625 6.703125 -11.921875 C 6.628906 -11.859375 6.5625 -11.722656 6.5 -11.515625 C 6.5 -11.421875 6.460938 -11.203125 6.390625 -10.859375 L 5.53125 -4.8125 L 12.40625 -4.8125 C 12.65625 -4.863281 12.8125 -4.929688 12.875 -5.015625 C 12.945312 -5.085938 13.003906 -5.203125 13.046875 -5.359375 C 13.097656 -5.429688 13.132812 -5.53125 13.15625 -5.65625 C 13.175781 -5.78125 13.195312 -5.921875 13.21875 -6.078125 L 14.046875 -12.125 Z M 7.96875 -12.125 "/></g></g></g><g fill="#00ffff" fill-opacity="1"><g transform="translate(126.23205, 27.825979)"><g><path d="M 7.3125 -16.921875 L 14.765625 -16.921875 C 15.378906 -16.921875 15.890625 -16.921875 16.296875 -16.921875 C 16.710938 -16.921875 17.019531 -16.90625 17.21875 -16.875 C 17.96875 -16.851562 18.484375 -16.71875 18.765625 -16.46875 C 19.078125 -16.238281 19.234375 -15.769531 19.234375 -15.0625 C 19.234375 -14.976562 19.234375 -14.875 19.234375 -14.75 C 19.234375 -14.625 19.222656 -14.492188 19.203125 -14.359375 C 19.179688 -14.148438 19.144531 -13.863281 19.09375 -13.5 C 19.050781 -13.132812 19 -12.675781 18.9375 -12.125 L 18.71875 -10.859375 C 18.539062 -9.472656 18.394531 -8.566406 18.28125 -8.140625 C 18.144531 -7.492188 17.925781 -7.023438 17.625 -6.734375 C 17.3125 -6.429688 16.820312 -6.238281 16.15625 -6.15625 C 15.726562 -6.082031 14.910156 -6.046875 13.703125 -6.046875 L 6.015625 -6.046875 C 5.921875 -6.046875 5.828125 -6 5.734375 -5.90625 C 5.691406 -5.863281 5.648438 -5.726562 5.609375 -5.5 C 5.609375 -5.382812 5.570312 -5.15625 5.5 -4.8125 L 13.015625 -4.8125 C 14.359375 -4.8125 15.210938 -4.78125 15.578125 -4.71875 C 16.128906 -4.644531 16.503906 -4.472656 16.703125 -4.203125 C 16.953125 -3.953125 17.101562 -3.453125 17.15625 -2.703125 C 17.195312 -2.492188 17.21875 -2.210938 17.21875 -1.859375 C 17.21875 -1.503906 17.21875 -1.078125 17.21875 -0.578125 L 17.21875 0 L 4.3125 0 C 3.625 0 3.054688 -0.015625 2.609375 -0.046875 C 2.171875 -0.0859375 1.828125 -0.117188 1.578125 -0.140625 C 1.097656 -0.273438 0.753906 -0.488281 0.546875 -0.78125 C 0.410156 -1.0625 0.34375 -1.414062 0.34375 -1.84375 L 0.34375 -2.125 C 0.363281 -2.53125 0.46875 -3.425781 0.65625 -4.8125 L 1.671875 -12.125 L 2.078125 -14.59375 C 2.242188 -15.382812 2.484375 -15.941406 2.796875 -16.265625 C 3.160156 -16.585938 3.640625 -16.78125 4.234375 -16.84375 C 4.484375 -16.894531 4.863281 -16.921875 5.375 -16.921875 C 5.894531 -16.921875 6.539062 -16.921875 7.3125 -16.921875 Z M 7.375 -12.125 C 7.039062 -12.125 6.847656 -12.113281 6.796875 -12.09375 C 6.753906 -12.070312 6.6875 -12.015625 6.59375 -11.921875 C 6.550781 -11.835938 6.503906 -11.738281 6.453125 -11.625 C 6.453125 -11.53125 6.421875 -11.273438 6.359375 -10.859375 L 13.421875 -10.859375 C 13.609375 -10.890625 13.75 -10.945312 13.84375 -11.03125 C 13.90625 -11.101562 13.9375 -11.207031 13.9375 -11.34375 C 13.988281 -11.5 14.023438 -11.757812 14.046875 -12.125 Z M 7.375 -12.125 "/></g></g></g><g fill="#00ffff" fill-opacity="1"><g transform="translate(145.262005, 27.825979)"><g><path d="M 1.90625 -12.125 C 2.019531 -12.789062 2.113281 -13.335938 2.1875 -13.765625 C 2.257812 -14.203125 2.304688 -14.523438 2.328125 -14.734375 C 2.503906 -15.503906 2.742188 -16.023438 3.046875 -16.296875 C 3.316406 -16.566406 3.703125 -16.738281 4.203125 -16.8125 C 4.453125 -16.851562 4.78125 -16.882812 5.1875 -16.90625 C 5.601562 -16.9375 6.109375 -16.953125 6.703125 -16.953125 L 19.8125 -16.953125 C 19.726562 -16.242188 19.644531 -15.65625 19.5625 -15.1875 C 19.476562 -14.71875 19.40625 -14.359375 19.34375 -14.109375 C 19.15625 -13.429688 18.90625 -12.96875 18.59375 -12.71875 C 18.425781 -12.570312 18.21875 -12.457031 17.96875 -12.375 C 17.71875 -12.300781 17.410156 -12.242188 17.046875 -12.203125 C 16.816406 -12.179688 16.472656 -12.160156 16.015625 -12.140625 C 15.566406 -12.128906 14.976562 -12.125 14.25 -12.125 L 8.4375 -12.125 C 8.1875 -12.125 7.972656 -12.125 7.796875 -12.125 C 7.628906 -12.125 7.503906 -12.113281 7.421875 -12.09375 C 7.234375 -12.09375 7.070312 -12.046875 6.9375 -11.953125 C 6.863281 -11.890625 6.796875 -11.753906 6.734375 -11.546875 C 6.710938 -11.503906 6.6875 -11.414062 6.65625 -11.28125 C 6.632812 -11.144531 6.601562 -10.960938 6.5625 -10.734375 L 5.734375 -4.8125 C 5.648438 -4.132812 5.570312 -3.566406 5.5 -3.109375 C 5.4375 -2.648438 5.367188 -2.296875 5.296875 -2.046875 C 5.160156 -1.503906 4.988281 -1.09375 4.78125 -0.8125 C 4.507812 -0.519531 4.113281 -0.304688 3.59375 -0.171875 C 3.425781 -0.148438 3.207031 -0.125 2.9375 -0.09375 C 2.664062 -0.0703125 2.347656 -0.0507812 1.984375 -0.03125 C 1.828125 -0.03125 1.617188 -0.0234375 1.359375 -0.015625 C 1.109375 -0.00390625 0.789062 0 0.40625 0 L -1.03125 0 C -0.78125 -0.25 -0.582031 -0.445312 -0.4375 -0.59375 C -0.300781 -0.738281 -0.203125 -0.859375 -0.140625 -0.953125 C 0.160156 -1.253906 0.332031 -1.484375 0.375 -1.640625 C 0.414062 -1.710938 0.441406 -1.785156 0.453125 -1.859375 C 0.472656 -1.941406 0.492188 -2.03125 0.515625 -2.125 C 0.554688 -2.257812 0.585938 -2.507812 0.609375 -2.875 Z M 1.90625 -12.125 "/></g></g></g><g fill="#ff0000" fill-opacity="1"><g transform="translate(166.506828, 27.326526)"><g/></g></g><g fill="#00ffff" fill-opacity="1"><g transform="translate(164.873175, 27.825979)"><g/></g></g><g fill="#a81a1a" fill-opacity="1"><g transform="translate(1.321353, 27.576253)"><g><path d="M 15.40625 -20.984375 C 15.476562 -21.410156 15.582031 -21.773438 15.71875 -22.078125 C 15.925781 -22.535156 16.203125 -22.875 16.546875 -23.09375 C 16.835938 -23.320312 17.164062 -23.484375 17.53125 -23.578125 C 17.738281 -23.648438 17.953125 -23.707031 18.171875 -23.75 C 18.398438 -23.789062 18.640625 -23.828125 18.890625 -23.859375 C 19.078125 -23.878906 19.269531 -23.894531 19.46875 -23.90625 C 19.675781 -23.914062 19.894531 -23.921875 20.125 -23.921875 L 21.765625 -23.921875 C 21.398438 -23.578125 21.128906 -23.335938 20.953125 -23.203125 C 20.859375 -23.109375 20.773438 -23.023438 20.703125 -22.953125 C 20.640625 -22.890625 20.582031 -22.828125 20.53125 -22.765625 C 20.445312 -22.648438 20.367188 -22.5 20.296875 -22.3125 C 20.296875 -22.195312 20.265625 -22.003906 20.203125 -21.734375 L 19.578125 -16.921875 L 18.078125 -6.078125 L 17.90625 -4.8125 C 17.832031 -4.226562 17.757812 -3.726562 17.6875 -3.3125 C 17.625 -2.90625 17.570312 -2.597656 17.53125 -2.390625 C 17.394531 -1.660156 17.203125 -1.132812 16.953125 -0.8125 C 16.648438 -0.40625 16.054688 -0.15625 15.171875 -0.0625 C 14.941406 -0.0390625 14.597656 -0.0234375 14.140625 -0.015625 C 13.691406 -0.00390625 13.125 0 12.4375 0 L 4.75 0 C 4.175781 0 3.695312 -0.00390625 3.3125 -0.015625 C 2.925781 -0.0234375 2.628906 -0.03125 2.421875 -0.03125 C 1.378906 -0.101562 0.742188 -0.378906 0.515625 -0.859375 C 0.398438 -1.128906 0.34375 -1.457031 0.34375 -1.84375 C 0.34375 -1.957031 0.347656 -2.066406 0.359375 -2.171875 C 0.367188 -2.273438 0.375 -2.382812 0.375 -2.5 C 0.414062 -2.925781 0.519531 -3.695312 0.6875 -4.8125 C 0.75 -5.269531 0.828125 -5.820312 0.921875 -6.46875 C 1.015625 -7.125 1.117188 -7.875 1.234375 -8.71875 C 1.367188 -9.582031 1.472656 -10.289062 1.546875 -10.84375 C 1.628906 -11.40625 1.679688 -11.832031 1.703125 -12.125 C 1.890625 -13.46875 2.03125 -14.335938 2.125 -14.734375 C 2.300781 -15.503906 2.539062 -16.023438 2.84375 -16.296875 C 3.113281 -16.566406 3.554688 -16.738281 4.171875 -16.8125 C 4.648438 -16.882812 5.515625 -16.921875 6.765625 -16.921875 L 14.734375 -16.921875 Z M 7.96875 -12.125 C 7.894531 -12.125 7.800781 -12.125 7.6875 -12.125 C 7.570312 -12.125 7.425781 -12.113281 7.25 -12.09375 C 7.082031 -12.09375 6.976562 -12.082031 6.9375 -12.0625 C 6.863281 -12.0625 6.785156 -12.015625 6.703125 -11.921875 C 6.628906 -11.859375 6.5625 -11.722656 6.5 -11.515625 C 6.5 -11.421875 6.460938 -11.203125 6.390625 -10.859375 L 5.53125 -4.8125 L 12.40625 -4.8125 C 12.65625 -4.863281 12.8125 -4.929688 12.875 -5.015625 C 12.945312 -5.085938 13.003906 -5.203125 13.046875 -5.359375 C 13.097656 -5.429688 13.132812 -5.53125 13.15625 -5.65625 C 13.175781 -5.78125 13.195312 -5.921875 13.21875 -6.078125 L 14.046875 -12.125 Z M 7.96875 -12.125 "/></g></g></g><g fill="#a81a1a" fill-opacity="1"><g transform="translate(21.000444, 27.576253)"><g><path d="M 1.671875 -12.125 C 1.804688 -13.15625 1.910156 -13.828125 1.984375 -14.140625 C 2.191406 -15.191406 2.460938 -15.890625 2.796875 -16.234375 C 3.117188 -16.578125 3.609375 -16.78125 4.265625 -16.84375 C 4.515625 -16.894531 4.867188 -16.921875 5.328125 -16.921875 C 5.785156 -16.921875 6.359375 -16.921875 7.046875 -16.921875 L 14.90625 -16.921875 C 15.738281 -16.921875 16.421875 -16.90625 16.953125 -16.875 C 17.492188 -16.851562 17.878906 -16.8125 18.109375 -16.75 C 18.515625 -16.675781 18.8125 -16.492188 19 -16.203125 C 19.15625 -15.972656 19.234375 -15.59375 19.234375 -15.0625 L 19.234375 -14.734375 C 19.234375 -14.296875 19.132812 -13.425781 18.9375 -12.125 L 17.90625 -4.8125 C 17.75 -3.601562 17.613281 -2.773438 17.5 -2.328125 C 17.363281 -1.679688 17.191406 -1.210938 16.984375 -0.921875 C 16.734375 -0.535156 16.273438 -0.273438 15.609375 -0.140625 C 15.390625 -0.117188 15.023438 -0.0859375 14.515625 -0.046875 C 14.015625 -0.015625 13.378906 0 12.609375 0 L 4.578125 0 C 3.847656 0 3.242188 -0.015625 2.765625 -0.046875 C 2.285156 -0.0859375 1.921875 -0.117188 1.671875 -0.140625 C 1.171875 -0.222656 0.804688 -0.414062 0.578125 -0.71875 C 0.515625 -0.851562 0.457031 -1.015625 0.40625 -1.203125 C 0.363281 -1.398438 0.34375 -1.613281 0.34375 -1.84375 L 0.34375 -2.25 C 0.382812 -2.707031 0.488281 -3.5625 0.65625 -4.8125 C 0.71875 -5.269531 0.800781 -5.820312 0.90625 -6.46875 C 1.007812 -7.125 1.117188 -7.875 1.234375 -8.71875 C 1.367188 -9.582031 1.46875 -10.289062 1.53125 -10.84375 C 1.601562 -11.40625 1.648438 -11.832031 1.671875 -12.125 Z M 8.203125 -12.125 C 7.929688 -12.125 7.703125 -12.125 7.515625 -12.125 C 7.335938 -12.125 7.203125 -12.113281 7.109375 -12.09375 C 6.878906 -12.050781 6.71875 -11.984375 6.625 -11.890625 C 6.5625 -11.828125 6.492188 -11.632812 6.421875 -11.3125 C 6.421875 -11.289062 6.414062 -11.238281 6.40625 -11.15625 C 6.394531 -11.070312 6.378906 -10.972656 6.359375 -10.859375 L 5.5 -4.8125 L 12.609375 -4.8125 C 12.765625 -4.863281 12.867188 -4.910156 12.921875 -4.953125 C 13.003906 -5.046875 13.046875 -5.148438 13.046875 -5.265625 C 13.097656 -5.328125 13.132812 -5.421875 13.15625 -5.546875 C 13.175781 -5.671875 13.195312 -5.835938 13.21875 -6.046875 L 14.078125 -12.125 Z M 8.203125 -12.125 "/></g></g></g><g fill="#a81a1a" fill-opacity="1"><g transform="translate(40.542873, 27.576253)"><g><path d="M 0.984375 -16.953125 L 3.890625 -16.953125 C 4.210938 -16.953125 4.5 -16.953125 4.75 -16.953125 C 5 -16.953125 5.203125 -16.925781 5.359375 -16.875 C 5.859375 -16.8125 6.210938 -16.675781 6.421875 -16.46875 C 6.722656 -16.238281 6.875 -15.796875 6.875 -15.140625 C 6.875 -14.910156 6.84375 -14.546875 6.78125 -14.046875 C 6.726562 -13.546875 6.644531 -12.921875 6.53125 -12.171875 L 5.671875 -6.046875 C 5.671875 -5.835938 5.648438 -5.664062 5.609375 -5.53125 C 5.609375 -5.445312 5.613281 -5.367188 5.625 -5.296875 C 5.632812 -5.222656 5.640625 -5.164062 5.640625 -5.125 C 5.660156 -5.007812 5.75 -4.921875 5.90625 -4.859375 C 5.976562 -4.859375 6.09375 -4.847656 6.25 -4.828125 C 6.414062 -4.816406 6.609375 -4.8125 6.828125 -4.8125 L 7.59375 -10.359375 L 8.546875 -16.953125 C 9.273438 -16.953125 9.878906 -16.953125 10.359375 -16.953125 C 10.835938 -16.953125 11.1875 -16.925781 11.40625 -16.875 C 12.070312 -16.8125 12.507812 -16.609375 12.71875 -16.265625 C 12.894531 -16.054688 12.984375 -15.632812 12.984375 -15 C 12.984375 -14.90625 12.984375 -14.796875 12.984375 -14.671875 C 12.984375 -14.546875 12.972656 -14.414062 12.953125 -14.28125 C 12.929688 -14.101562 12.898438 -13.84375 12.859375 -13.5 C 12.828125 -13.15625 12.78125 -12.722656 12.71875 -12.203125 L 11.859375 -6.109375 C 11.835938 -5.953125 11.820312 -5.816406 11.8125 -5.703125 C 11.800781 -5.585938 11.796875 -5.5 11.796875 -5.4375 C 11.796875 -5.226562 11.804688 -5.085938 11.828125 -5.015625 C 11.867188 -4.992188 11.910156 -4.972656 11.953125 -4.953125 C 12.003906 -4.929688 12.0625 -4.898438 12.125 -4.859375 C 12.195312 -4.859375 12.304688 -4.847656 12.453125 -4.828125 C 12.597656 -4.816406 12.785156 -4.8125 13.015625 -4.8125 L 13.765625 -10.109375 L 14.734375 -16.953125 C 15.429688 -16.953125 16.007812 -16.953125 16.46875 -16.953125 C 16.925781 -16.953125 17.269531 -16.925781 17.5 -16.875 C 18.132812 -16.832031 18.566406 -16.695312 18.796875 -16.46875 C 19.085938 -16.238281 19.234375 -15.785156 19.234375 -15.109375 C 19.234375 -14.648438 19.132812 -13.671875 18.9375 -12.171875 L 17.90625 -4.8125 C 17.75 -3.5625 17.613281 -2.707031 17.5 -2.25 C 17.363281 -1.570312 17.132812 -1.050781 16.8125 -0.6875 C 16.46875 -0.34375 15.84375 -0.132812 14.9375 -0.0625 C 14.726562 -0.0390625 14.410156 -0.0234375 13.984375 -0.015625 C 13.566406 -0.00390625 13.03125 0 12.375 0 L 4.8125 0 C 3.3125 0 2.320312 -0.0351562 1.84375 -0.109375 C 1.15625 -0.242188 0.722656 -0.46875 0.546875 -0.78125 C 0.410156 -1.0625 0.34375 -1.425781 0.34375 -1.875 C 0.34375 -1.96875 0.347656 -2.050781 0.359375 -2.125 C 0.367188 -2.207031 0.375 -2.296875 0.375 -2.390625 C 0.394531 -2.597656 0.425781 -2.90625 0.46875 -3.3125 C 0.519531 -3.726562 0.582031 -4.226562 0.65625 -4.8125 L 1.40625 -10.109375 L 2.015625 -14.453125 C 2.035156 -14.585938 2.046875 -14.703125 2.046875 -14.796875 C 2.046875 -14.890625 2.046875 -14.945312 2.046875 -14.96875 C 2.046875 -15.175781 2.023438 -15.320312 1.984375 -15.40625 C 1.929688 -15.570312 1.828125 -15.753906 1.671875 -15.953125 C 1.628906 -16.066406 1.550781 -16.203125 1.4375 -16.359375 C 1.320312 -16.523438 1.171875 -16.722656 0.984375 -16.953125 Z M 0.984375 -16.953125 "/></g></g></g><g fill="#a81a1a" fill-opacity="1"><g transform="translate(60.085306, 27.576253)"><g><path d="M 2.046875 -12.09375 C 2.140625 -12.757812 2.21875 -13.300781 2.28125 -13.71875 C 2.351562 -14.144531 2.398438 -14.457031 2.421875 -14.65625 C 2.554688 -15.363281 2.75 -15.851562 3 -16.125 C 3.28125 -16.507812 3.738281 -16.738281 4.375 -16.8125 C 4.832031 -16.882812 5.550781 -16.921875 6.53125 -16.921875 L 16.125 -16.921875 C 16.445312 -16.921875 16.726562 -16.921875 16.96875 -16.921875 C 17.207031 -16.921875 17.40625 -16.90625 17.5625 -16.875 C 18.269531 -16.851562 18.769531 -16.726562 19.0625 -16.5 C 19.40625 -16.269531 19.578125 -15.78125 19.578125 -15.03125 C 19.578125 -14.582031 19.472656 -13.601562 19.265625 -12.09375 L 19.109375 -10.859375 L 18.421875 -6.046875 L 18.25 -4.78125 C 18.15625 -4.070312 18.066406 -3.484375 17.984375 -3.015625 C 17.910156 -2.554688 17.835938 -2.210938 17.765625 -1.984375 C 17.628906 -1.484375 17.457031 -1.082031 17.25 -0.78125 C 16.976562 -0.488281 16.5625 -0.273438 16 -0.140625 C 15.769531 -0.117188 15.378906 -0.0859375 14.828125 -0.046875 C 14.285156 -0.015625 13.582031 0 12.71875 0 L 13.390625 -4.78125 L 13.5625 -6.046875 L 14.25 -10.859375 L 14.421875 -12.09375 L 8.171875 -12.09375 C 8.078125 -12.113281 7.992188 -12.125 7.921875 -12.125 C 7.859375 -12.125 7.789062 -12.125 7.71875 -12.125 C 7.5625 -12.125 7.460938 -12.113281 7.421875 -12.09375 C 7.253906 -12.09375 7.140625 -12.0625 7.078125 -12 C 6.984375 -11.90625 6.898438 -11.765625 6.828125 -11.578125 C 6.828125 -11.492188 6.796875 -11.253906 6.734375 -10.859375 L 6.046875 -6.046875 L 5.875 -4.78125 C 5.71875 -3.570312 5.582031 -2.742188 5.46875 -2.296875 C 5.394531 -1.929688 5.300781 -1.617188 5.1875 -1.359375 C 5.070312 -1.109375 4.945312 -0.894531 4.8125 -0.71875 C 4.519531 -0.375 4 -0.15625 3.25 -0.0625 C 3.019531 -0.0390625 2.675781 -0.0234375 2.21875 -0.015625 C 1.757812 -0.00390625 1.203125 0 0.546875 0 L -1.03125 0 C -0.570312 -0.382812 -0.285156 -0.632812 -0.171875 -0.75 C 0.0976562 -0.976562 0.28125 -1.160156 0.375 -1.296875 C 0.414062 -1.367188 0.445312 -1.429688 0.46875 -1.484375 C 0.5 -1.546875 0.523438 -1.609375 0.546875 -1.671875 C 0.585938 -1.785156 0.632812 -2.023438 0.6875 -2.390625 L 1.03125 -4.78125 L 1.203125 -6.046875 L 1.875 -10.859375 Z M 2.046875 -12.09375 "/></g></g></g><g fill="#a81a1a" fill-opacity="1"><g transform="translate(79.969389, 27.576253)"><g><path d="M 8.546875 -23.953125 L 7.828125 -18.71875 L 6.875 -11.890625 L 5.875 -4.78125 C 5.78125 -4.144531 5.695312 -3.613281 5.625 -3.1875 C 5.5625 -2.769531 5.5 -2.445312 5.4375 -2.21875 C 5.300781 -1.5625 5.09375 -1.070312 4.8125 -0.75 C 4.539062 -0.476562 4.117188 -0.273438 3.546875 -0.140625 C 3.078125 -0.0664062 2.085938 -0.03125 0.578125 -0.03125 L -1.03125 -0.03125 C -0.78125 -0.28125 -0.570312 -0.472656 -0.40625 -0.609375 C -0.25 -0.742188 -0.132812 -0.847656 -0.0625 -0.921875 C 0.1875 -1.171875 0.34375 -1.363281 0.40625 -1.5 C 0.457031 -1.570312 0.492188 -1.632812 0.515625 -1.6875 C 0.535156 -1.75 0.554688 -1.8125 0.578125 -1.875 C 0.628906 -2.007812 0.664062 -2.21875 0.6875 -2.5 L 1.578125 -8.84375 L 2.25 -13.5625 L 3 -19.140625 C 3.113281 -19.867188 3.210938 -20.460938 3.296875 -20.921875 C 3.378906 -21.390625 3.441406 -21.738281 3.484375 -21.96875 C 3.640625 -22.5625 3.867188 -23.007812 4.171875 -23.3125 C 4.441406 -23.582031 4.835938 -23.75 5.359375 -23.8125 C 5.609375 -23.863281 5.992188 -23.898438 6.515625 -23.921875 C 7.046875 -23.941406 7.722656 -23.953125 8.546875 -23.953125 Z M 8.546875 -23.953125 "/></g></g></g><g fill="#a81a1a" fill-opacity="1"><g transform="translate(87.827356, 27.576253)"><g><path d="M 1.671875 -12.125 C 1.804688 -13.15625 1.910156 -13.828125 1.984375 -14.140625 C 2.191406 -15.191406 2.460938 -15.890625 2.796875 -16.234375 C 3.117188 -16.578125 3.609375 -16.78125 4.265625 -16.84375 C 4.515625 -16.894531 4.867188 -16.921875 5.328125 -16.921875 C 5.785156 -16.921875 6.359375 -16.921875 7.046875 -16.921875 L 14.90625 -16.921875 C 15.738281 -16.921875 16.421875 -16.90625 16.953125 -16.875 C 17.492188 -16.851562 17.878906 -16.8125 18.109375 -16.75 C 18.515625 -16.675781 18.8125 -16.492188 19 -16.203125 C 19.15625 -15.972656 19.234375 -15.59375 19.234375 -15.0625 L 19.234375 -14.734375 C 19.234375 -14.296875 19.132812 -13.425781 18.9375 -12.125 L 17.90625 -4.8125 C 17.75 -3.601562 17.613281 -2.773438 17.5 -2.328125 C 17.363281 -1.679688 17.191406 -1.210938 16.984375 -0.921875 C 16.734375 -0.535156 16.273438 -0.273438 15.609375 -0.140625 C 15.390625 -0.117188 15.023438 -0.0859375 14.515625 -0.046875 C 14.015625 -0.015625 13.378906 0 12.609375 0 L 4.578125 0 C 3.847656 0 3.242188 -0.015625 2.765625 -0.046875 C 2.285156 -0.0859375 1.921875 -0.117188 1.671875 -0.140625 C 1.171875 -0.222656 0.804688 -0.414062 0.578125 -0.71875 C 0.515625 -0.851562 0.457031 -1.015625 0.40625 -1.203125 C 0.363281 -1.398438 0.34375 -1.613281 0.34375 -1.84375 L 0.34375 -2.25 C 0.382812 -2.707031 0.488281 -3.5625 0.65625 -4.8125 C 0.71875 -5.269531 0.800781 -5.820312 0.90625 -6.46875 C 1.007812 -7.125 1.117188 -7.875 1.234375 -8.71875 C 1.367188 -9.582031 1.46875 -10.289062 1.53125 -10.84375 C 1.601562 -11.40625 1.648438 -11.832031 1.671875 -12.125 Z M 8.203125 -12.125 C 7.929688 -12.125 7.703125 -12.125 7.515625 -12.125 C 7.335938 -12.125 7.203125 -12.113281 7.109375 -12.09375 C 6.878906 -12.050781 6.71875 -11.984375 6.625 -11.890625 C 6.5625 -11.828125 6.492188 -11.632812 6.421875 -11.3125 C 6.421875 -11.289062 6.414062 -11.238281 6.40625 -11.15625 C 6.394531 -11.070312 6.378906 -10.972656 6.359375 -10.859375 L 5.5 -4.8125 L 12.609375 -4.8125 C 12.765625 -4.863281 12.867188 -4.910156 12.921875 -4.953125 C 13.003906 -5.046875 13.046875 -5.148438 13.046875 -5.265625 C 13.097656 -5.328125 13.132812 -5.421875 13.15625 -5.546875 C 13.175781 -5.671875 13.195312 -5.835938 13.21875 -6.046875 L 14.078125 -12.125 Z M 8.203125 -12.125 "/></g></g></g><g fill="#a81a1a" fill-opacity="1"><g transform="translate(107.369785, 27.576253)"><g><path d="M 15.40625 -20.984375 C 15.476562 -21.410156 15.582031 -21.773438 15.71875 -22.078125 C 15.925781 -22.535156 16.203125 -22.875 16.546875 -23.09375 C 16.835938 -23.320312 17.164062 -23.484375 17.53125 -23.578125 C 17.738281 -23.648438 17.953125 -23.707031 18.171875 -23.75 C 18.398438 -23.789062 18.640625 -23.828125 18.890625 -23.859375 C 19.078125 -23.878906 19.269531 -23.894531 19.46875 -23.90625 C 19.675781 -23.914062 19.894531 -23.921875 20.125 -23.921875 L 21.765625 -23.921875 C 21.398438 -23.578125 21.128906 -23.335938 20.953125 -23.203125 C 20.859375 -23.109375 20.773438 -23.023438 20.703125 -22.953125 C 20.640625 -22.890625 20.582031 -22.828125 20.53125 -22.765625 C 20.445312 -22.648438 20.367188 -22.5 20.296875 -22.3125 C 20.296875 -22.195312 20.265625 -22.003906 20.203125 -21.734375 L 19.578125 -16.921875 L 18.078125 -6.078125 L 17.90625 -4.8125 C 17.832031 -4.226562 17.757812 -3.726562 17.6875 -3.3125 C 17.625 -2.90625 17.570312 -2.597656 17.53125 -2.390625 C 17.394531 -1.660156 17.203125 -1.132812 16.953125 -0.8125 C 16.648438 -0.40625 16.054688 -0.15625 15.171875 -0.0625 C 14.941406 -0.0390625 14.597656 -0.0234375 14.140625 -0.015625 C 13.691406 -0.00390625 13.125 0 12.4375 0 L 4.75 0 C 4.175781 0 3.695312 -0.00390625 3.3125 -0.015625 C 2.925781 -0.0234375 2.628906 -0.03125 2.421875 -0.03125 C 1.378906 -0.101562 0.742188 -0.378906 0.515625 -0.859375 C 0.398438 -1.128906 0.34375 -1.457031 0.34375 -1.84375 C 0.34375 -1.957031 0.347656 -2.066406 0.359375 -2.171875 C 0.367188 -2.273438 0.375 -2.382812 0.375 -2.5 C 0.414062 -2.925781 0.519531 -3.695312 0.6875 -4.8125 C 0.75 -5.269531 0.828125 -5.820312 0.921875 -6.46875 C 1.015625 -7.125 1.117188 -7.875 1.234375 -8.71875 C 1.367188 -9.582031 1.472656 -10.289062 1.546875 -10.84375 C 1.628906 -11.40625 1.679688 -11.832031 1.703125 -12.125 C 1.890625 -13.46875 2.03125 -14.335938 2.125 -14.734375 C 2.300781 -15.503906 2.539062 -16.023438 2.84375 -16.296875 C 3.113281 -16.566406 3.554688 -16.738281 4.171875 -16.8125 C 4.648438 -16.882812 5.515625 -16.921875 6.765625 -16.921875 L 14.734375 -16.921875 Z M 7.96875 -12.125 C 7.894531 -12.125 7.800781 -12.125 7.6875 -12.125 C 7.570312 -12.125 7.425781 -12.113281 7.25 -12.09375 C 7.082031 -12.09375 6.976562 -12.082031 6.9375 -12.0625 C 6.863281 -12.0625 6.785156 -12.015625 6.703125 -11.921875 C 6.628906 -11.859375 6.5625 -11.722656 6.5 -11.515625 C 6.5 -11.421875 6.460938 -11.203125 6.390625 -10.859375 L 5.53125 -4.8125 L 12.40625 -4.8125 C 12.65625 -4.863281 12.8125 -4.929688 12.875 -5.015625 C 12.945312 -5.085938 13.003906 -5.203125 13.046875 -5.359375 C 13.097656 -5.429688 13.132812 -5.53125 13.15625 -5.65625 C 13.175781 -5.78125 13.195312 -5.921875 13.21875 -6.078125 L 14.046875 -12.125 Z M 7.96875 -12.125 "/></g></g></g><g fill="#a81a1a" fill-opacity="1"><g transform="translate(127.048876, 27.576253)"><g><path d="M 7.3125 -16.921875 L 14.765625 -16.921875 C 15.378906 -16.921875 15.890625 -16.921875 16.296875 -16.921875 C 16.710938 -16.921875 17.019531 -16.90625 17.21875 -16.875 C 17.96875 -16.851562 18.484375 -16.71875 18.765625 -16.46875 C 19.078125 -16.238281 19.234375 -15.769531 19.234375 -15.0625 C 19.234375 -14.976562 19.234375 -14.875 19.234375 -14.75 C 19.234375 -14.625 19.222656 -14.492188 19.203125 -14.359375 C 19.179688 -14.148438 19.144531 -13.863281 19.09375 -13.5 C 19.050781 -13.132812 19 -12.675781 18.9375 -12.125 L 18.71875 -10.859375 C 18.539062 -9.472656 18.394531 -8.566406 18.28125 -8.140625 C 18.144531 -7.492188 17.925781 -7.023438 17.625 -6.734375 C 17.3125 -6.429688 16.820312 -6.238281 16.15625 -6.15625 C 15.726562 -6.082031 14.910156 -6.046875 13.703125 -6.046875 L 6.015625 -6.046875 C 5.921875 -6.046875 5.828125 -6 5.734375 -5.90625 C 5.691406 -5.863281 5.648438 -5.726562 5.609375 -5.5 C 5.609375 -5.382812 5.570312 -5.15625 5.5 -4.8125 L 13.015625 -4.8125 C 14.359375 -4.8125 15.210938 -4.78125 15.578125 -4.71875 C 16.128906 -4.644531 16.503906 -4.472656 16.703125 -4.203125 C 16.953125 -3.953125 17.101562 -3.453125 17.15625 -2.703125 C 17.195312 -2.492188 17.21875 -2.210938 17.21875 -1.859375 C 17.21875 -1.503906 17.21875 -1.078125 17.21875 -0.578125 L 17.21875 0 L 4.3125 0 C 3.625 0 3.054688 -0.015625 2.609375 -0.046875 C 2.171875 -0.0859375 1.828125 -0.117188 1.578125 -0.140625 C 1.097656 -0.273438 0.753906 -0.488281 0.546875 -0.78125 C 0.410156 -1.0625 0.34375 -1.414062 0.34375 -1.84375 L 0.34375 -2.125 C 0.363281 -2.53125 0.46875 -3.425781 0.65625 -4.8125 L 1.671875 -12.125 L 2.078125 -14.59375 C 2.242188 -15.382812 2.484375 -15.941406 2.796875 -16.265625 C 3.160156 -16.585938 3.640625 -16.78125 4.234375 -16.84375 C 4.484375 -16.894531 4.863281 -16.921875 5.375 -16.921875 C 5.894531 -16.921875 6.539062 -16.921875 7.3125 -16.921875 Z M 7.375 -12.125 C 7.039062 -12.125 6.847656 -12.113281 6.796875 -12.09375 C 6.753906 -12.070312 6.6875 -12.015625 6.59375 -11.921875 C 6.550781 -11.835938 6.503906 -11.738281 6.453125 -11.625 C 6.453125 -11.53125 6.421875 -11.273438 6.359375 -10.859375 L 13.421875 -10.859375 C 13.609375 -10.890625 13.75 -10.945312 13.84375 -11.03125 C 13.90625 -11.101562 13.9375 -11.207031 13.9375 -11.34375 C 13.988281 -11.5 14.023438 -11.757812 14.046875 -12.125 Z M 7.375 -12.125 "/></g></g></g><g fill="#a81a1a" fill-opacity="1"><g transform="translate(146.078831, 27.576253)"><g><path d="M 1.90625 -12.125 C 2.019531 -12.789062 2.113281 -13.335938 2.1875 -13.765625 C 2.257812 -14.203125 2.304688 -14.523438 2.328125 -14.734375 C 2.503906 -15.503906 2.742188 -16.023438 3.046875 -16.296875 C 3.316406 -16.566406 3.703125 -16.738281 4.203125 -16.8125 C 4.453125 -16.851562 4.78125 -16.882812 5.1875 -16.90625 C 5.601562 -16.9375 6.109375 -16.953125 6.703125 -16.953125 L 19.8125 -16.953125 C 19.726562 -16.242188 19.644531 -15.65625 19.5625 -15.1875 C 19.476562 -14.71875 19.40625 -14.359375 19.34375 -14.109375 C 19.15625 -13.429688 18.90625 -12.96875 18.59375 -12.71875 C 18.425781 -12.570312 18.21875 -12.457031 17.96875 -12.375 C 17.71875 -12.300781 17.410156 -12.242188 17.046875 -12.203125 C 16.816406 -12.179688 16.472656 -12.160156 16.015625 -12.140625 C 15.566406 -12.128906 14.976562 -12.125 14.25 -12.125 L 8.4375 -12.125 C 8.1875 -12.125 7.972656 -12.125 7.796875 -12.125 C 7.628906 -12.125 7.503906 -12.113281 7.421875 -12.09375 C 7.234375 -12.09375 7.070312 -12.046875 6.9375 -11.953125 C 6.863281 -11.890625 6.796875 -11.753906 6.734375 -11.546875 C 6.710938 -11.503906 6.6875 -11.414062 6.65625 -11.28125 C 6.632812 -11.144531 6.601562 -10.960938 6.5625 -10.734375 L 5.734375 -4.8125 C 5.648438 -4.132812 5.570312 -3.566406 5.5 -3.109375 C 5.4375 -2.648438 5.367188 -2.296875 5.296875 -2.046875 C 5.160156 -1.503906 4.988281 -1.09375 4.78125 -0.8125 C 4.507812 -0.519531 4.113281 -0.304688 3.59375 -0.171875 C 3.425781 -0.148438 3.207031 -0.125 2.9375 -0.09375 C 2.664062 -0.0703125 2.347656 -0.0507812 1.984375 -0.03125 C 1.828125 -0.03125 1.617188 -0.0234375 1.359375 -0.015625 C 1.109375 -0.00390625 0.789062 0 0.40625 0 L -1.03125 0 C -0.78125 -0.25 -0.582031 -0.445312 -0.4375 -0.59375 C -0.300781 -0.738281 -0.203125 -0.859375 -0.140625 -0.953125 C 0.160156 -1.253906 0.332031 -1.484375 0.375 -1.640625 C 0.414062 -1.710938 0.441406 -1.785156 0.453125 -1.859375 C 0.472656 -1.941406 0.492188 -2.03125 0.515625 -2.125 C 0.554688 -2.257812 0.585938 -2.507812 0.609375 -2.875 Z M 1.90625 -12.125 "/></g></g></g><g fill="#a81a1a" fill-opacity="1"><g transform="translate(165.690002, 27.576253)"><g/></g></g></g></g><g transform="matrix(1, 0, 0, 1, 303, 192)"><g clip-path="url(#ffe84d89fa)"><g fill="#ff0000" fill-opacity="1"><g transform="translate(2.608959, 27.076527)"><g><path d="M 0.34375 0 L 0.75 -2.671875 C 0.9375 -3.367188 1.164062 -3.859375 1.4375 -4.140625 C 1.726562 -4.429688 2.160156 -4.613281 2.734375 -4.6875 C 2.984375 -4.726562 3.367188 -4.757812 3.890625 -4.78125 C 4.421875 -4.800781 5.082031 -4.8125 5.875 -4.8125 C 5.78125 -4 5.679688 -3.328125 5.578125 -2.796875 C 5.484375 -2.273438 5.398438 -1.890625 5.328125 -1.640625 C 5.171875 -1.117188 4.898438 -0.734375 4.515625 -0.484375 C 4.234375 -0.273438 3.8125 -0.132812 3.25 -0.0625 C 3.019531 -0.0390625 2.664062 -0.0234375 2.1875 -0.015625 C 1.707031 -0.00390625 1.09375 0 0.34375 0 Z M 0.34375 0 "/></g></g></g><g fill="#ff0000" fill-opacity="1"><g transform="translate(8.792842, 27.076527)"><g><path d="M 0.34375 0 L 0.75 -2.671875 C 0.9375 -3.367188 1.164062 -3.859375 1.4375 -4.140625 C 1.726562 -4.429688 2.160156 -4.613281 2.734375 -4.6875 C 2.984375 -4.726562 3.367188 -4.757812 3.890625 -4.78125 C 4.421875 -4.800781 5.082031 -4.8125 5.875 -4.8125 C 5.78125 -4 5.679688 -3.328125 5.578125 -2.796875 C 5.484375 -2.273438 5.398438 -1.890625 5.328125 -1.640625 C 5.171875 -1.117188 4.898438 -0.734375 4.515625 -0.484375 C 4.234375 -0.273438 3.8125 -0.132812 3.25 -0.0625 C 3.019531 -0.0390625 2.664062 -0.0234375 2.1875 -0.015625 C 1.707031 -0.00390625 1.09375 0 0.34375 0 Z M 0.34375 0 "/></g></g></g><g fill="#ff0000" fill-opacity="1"><g transform="translate(14.976725, 27.076527)"><g><path d="M 0.34375 0 L 0.75 -2.671875 C 0.9375 -3.367188 1.164062 -3.859375 1.4375 -4.140625 C 1.726562 -4.429688 2.160156 -4.613281 2.734375 -4.6875 C 2.984375 -4.726562 3.367188 -4.757812 3.890625 -4.78125 C 4.421875 -4.800781 5.082031 -4.8125 5.875 -4.8125 C 5.78125 -4 5.679688 -3.328125 5.578125 -2.796875 C 5.484375 -2.273438 5.398438 -1.890625 5.328125 -1.640625 C 5.171875 -1.117188 4.898438 -0.734375 4.515625 -0.484375 C 4.234375 -0.273438 3.8125 -0.132812 3.25 -0.0625 C 3.019531 -0.0390625 2.664062 -0.0234375 2.1875 -0.015625 C 1.707031 -0.00390625 1.09375 0 0.34375 0 Z M 0.34375 0 "/></g></g></g><g fill="#00ffff" fill-opacity="1"><g transform="translate(0.975305, 27.57598)"><g><path d="M 0.34375 0 L 0.75 -2.671875 C 0.9375 -3.367188 1.164062 -3.859375 1.4375 -4.140625 C 1.726562 -4.429688 2.160156 -4.613281 2.734375 -4.6875 C 2.984375 -4.726562 3.367188 -4.757812 3.890625 -4.78125 C 4.421875 -4.800781 5.082031 -4.8125 5.875 -4.8125 C 5.78125 -4 5.679688 -3.328125 5.578125 -2.796875 C 5.484375 -2.273438 5.398438 -1.890625 5.328125 -1.640625 C 5.171875 -1.117188 4.898438 -0.734375 4.515625 -0.484375 C 4.234375 -0.273438 3.8125 -0.132812 3.25 -0.0625 C 3.019531 -0.0390625 2.664062 -0.0234375 2.1875 -0.015625 C 1.707031 -0.00390625 1.09375 0 0.34375 0 Z M 0.34375 0 "/></g></g></g><g fill="#00ffff" fill-opacity="1"><g transform="translate(7.159188, 27.57598)"><g><path d="M 0.34375 0 L 0.75 -2.671875 C 0.9375 -3.367188 1.164062 -3.859375 1.4375 -4.140625 C 1.726562 -4.429688 2.160156 -4.613281 2.734375 -4.6875 C 2.984375 -4.726562 3.367188 -4.757812 3.890625 -4.78125 C 4.421875 -4.800781 5.082031 -4.8125 5.875 -4.8125 C 5.78125 -4 5.679688 -3.328125 5.578125 -2.796875 C 5.484375 -2.273438 5.398438 -1.890625 5.328125 -1.640625 C 5.171875 -1.117188 4.898438 -0.734375 4.515625 -0.484375 C 4.234375 -0.273438 3.8125 -0.132812 3.25 -0.0625 C 3.019531 -0.0390625 2.664062 -0.0234375 2.1875 -0.015625 C 1.707031 -0.00390625 1.09375 0 0.34375 0 Z M 0.34375 0 "/></g></g></g><g fill="#00ffff" fill-opacity="1"><g transform="translate(13.343071, 27.57598)"><g><path d="M 0.34375 0 L 0.75 -2.671875 C 0.9375 -3.367188 1.164062 -3.859375 1.4375 -4.140625 C 1.726562 -4.429688 2.160156 -4.613281 2.734375 -4.6875 C 2.984375 -4.726562 3.367188 -4.757812 3.890625 -4.78125 C 4.421875 -4.800781 5.082031 -4.8125 5.875 -4.8125 C 5.78125 -4 5.679688 -3.328125 5.578125 -2.796875 C 5.484375 -2.273438 5.398438 -1.890625 5.328125 -1.640625 C 5.171875 -1.117188 4.898438 -0.734375 4.515625 -0.484375 C 4.234375 -0.273438 3.8125 -0.132812 3.25 -0.0625 C 3.019531 -0.0390625 2.664062 -0.0234375 2.1875 -0.015625 C 1.707031 -0.00390625 1.09375 0 0.34375 0 Z M 0.34375 0 "/></g></g></g><g clip-path="url(#5e06222dbc)"><g fill="#ff0000" fill-opacity="1"><g transform="translate(21.161906, 27.076527)"><g/></g></g></g><g fill="#00ffff" fill-opacity="1"><g transform="translate(19.528253, 27.57598)"><g/></g></g><g fill="#a81a1a" fill-opacity="1"><g transform="translate(1.792131, 27.326254)"><g><path d="M 0.34375 0 L 0.75 -2.671875 C 0.9375 -3.367188 1.164062 -3.859375 1.4375 -4.140625 C 1.726562 -4.429688 2.160156 -4.613281 2.734375 -4.6875 C 2.984375 -4.726562 3.367188 -4.757812 3.890625 -4.78125 C 4.421875 -4.800781 5.082031 -4.8125 5.875 -4.8125 C 5.78125 -4 5.679688 -3.328125 5.578125 -2.796875 C 5.484375 -2.273438 5.398438 -1.890625 5.328125 -1.640625 C 5.171875 -1.117188 4.898438 -0.734375 4.515625 -0.484375 C 4.234375 -0.273438 3.8125 -0.132812 3.25 -0.0625 C 3.019531 -0.0390625 2.664062 -0.0234375 2.1875 -0.015625 C 1.707031 -0.00390625 1.09375 0 0.34375 0 Z M 0.34375 0 "/></g></g></g><g fill="#a81a1a" fill-opacity="1"><g transform="translate(7.976014, 27.326254)"><g><path d="M 0.34375 0 L 0.75 -2.671875 C 0.9375 -3.367188 1.164062 -3.859375 1.4375 -4.140625 C 1.726562 -4.429688 2.160156 -4.613281 2.734375 -4.6875 C 2.984375 -4.726562 3.367188 -4.757812 3.890625 -4.78125 C 4.421875 -4.800781 5.082031 -4.8125 5.875 -4.8125 C 5.78125 -4 5.679688 -3.328125 5.578125 -2.796875 C 5.484375 -2.273438 5.398438 -1.890625 5.328125 -1.640625 C 5.171875 -1.117188 4.898438 -0.734375 4.515625 -0.484375 C 4.234375 -0.273438 3.8125 -0.132812 3.25 -0.0625 C 3.019531 -0.0390625 2.664062 -0.0234375 2.1875 -0.015625 C 1.707031 -0.00390625 1.09375 0 0.34375 0 Z M 0.34375 0 "/></g></g></g><g fill="#a81a1a" fill-opacity="1"><g transform="translate(14.159897, 27.326254)"><g><path d="M 0.34375 0 L 0.75 -2.671875 C 0.9375 -3.367188 1.164062 -3.859375 1.4375 -4.140625 C 1.726562 -4.429688 2.160156 -4.613281 2.734375 -4.6875 C 2.984375 -4.726562 3.367188 -4.757812 3.890625 -4.78125 C 4.421875 -4.800781 5.082031 -4.8125 5.875 -4.8125 C 5.78125 -4 5.679688 -3.328125 5.578125 -2.796875 C 5.484375 -2.273438 5.398438 -1.890625 5.328125 -1.640625 C 5.171875 -1.117188 4.898438 -0.734375 4.515625 -0.484375 C 4.234375 -0.273438 3.8125 -0.132812 3.25 -0.0625 C 3.019531 -0.0390625 2.664062 -0.0234375 2.1875 -0.015625 C 1.707031 -0.00390625 1.09375 0 0.34375 0 Z M 0.34375 0 "/></g></g></g><g fill="#a81a1a" fill-opacity="1"><g transform="translate(20.345079, 27.326254)"><g/></g></g></g></g></svg>