<svg xmlns="http://www.w3.org/2000/svg" xmlns:xlink="http://www.w3.org/1999/xlink" width="500" zoomAndPan="magnify" viewBox="0 0 375 374.999991" height="500" preserveAspectRatio="xMidYMid meet" version="1.0"><defs><clipPath id="0e8e6c8e05"><path d="M 108.1875 63.304688 L 255.695312 63.304688 L 255.695312 210.808594 L 108.1875 210.808594 Z M 108.1875 63.304688 " clip-rule="nonzero"/></clipPath><clipPath id="dcd1c2e133"><path d="M 181.941406 63.304688 C 141.210938 63.304688 108.1875 96.324219 108.1875 137.058594 C 108.1875 177.789062 141.210938 210.808594 181.941406 210.808594 C 222.675781 210.808594 255.695312 177.789062 255.695312 137.058594 C 255.695312 96.324219 222.675781 63.304688 181.941406 63.304688 Z M 181.941406 63.304688 " clip-rule="nonzero"/></clipPath><clipPath id="427b279716"><path d="M 0.1875 0.304688 L 147.695312 0.304688 L 147.695312 147.808594 L 0.1875 147.808594 Z M 0.1875 0.304688 " clip-rule="nonzero"/></clipPath><clipPath id="eee012b4f4"><path d="M 73.941406 0.304688 C 33.210938 0.304688 0.1875 33.324219 0.1875 74.058594 C 0.1875 114.789062 33.210938 147.808594 73.941406 147.808594 C 114.675781 147.808594 147.695312 114.789062 147.695312 74.058594 C 147.695312 33.324219 114.675781 0.304688 73.941406 0.304688 Z M 73.941406 0.304688 " clip-rule="nonzero"/></clipPath><clipPath id="7bead6d0a1"><rect x="0" width="148" y="0" height="148"/></clipPath><clipPath id="9825b0fd00"><path d="M 32.097656 32.355469 L 322 32.355469 L 322 238 L 32.097656 238 Z M 32.097656 32.355469 " clip-rule="nonzero"/></clipPath><clipPath id="92a2274346"><path d="M 30.921875 86.679688 L 30.921875 183.035156 C 30.921875 197.757812 36.769531 211.871094 47.175781 222.28125 C 57.585938 232.6875 71.699219 238.535156 86.421875 238.535156 L 267.664062 238.535156 C 282.382812 238.535156 296.5 232.6875 306.90625 222.28125 C 317.316406 211.871094 323.164062 197.757812 323.164062 183.035156 L 323.164062 86.679688 C 323.164062 71.960938 317.316406 57.84375 306.90625 47.4375 C 296.5 37.027344 282.382812 31.179688 267.664062 31.179688 L 86.421875 31.179688 C 71.699219 31.179688 57.585938 37.027344 47.175781 47.4375 C 36.769531 57.84375 30.921875 71.960938 30.921875 86.679688 Z M 30.921875 86.679688 " clip-rule="nonzero"/></clipPath><clipPath id="dfc90c4361"><path d="M 87.832031 32.589844 L 266.253906 32.589844 C 280.972656 32.589844 295.089844 38.4375 305.496094 48.847656 C 315.90625 59.253906 321.753906 73.371094 321.753906 88.089844 L 321.753906 181.625 C 321.753906 196.34375 315.90625 210.460938 305.496094 220.871094 C 295.089844 231.277344 280.972656 237.125 266.253906 237.125 L 87.832031 237.125 C 73.113281 237.125 58.996094 231.277344 48.585938 220.871094 C 38.179688 210.460938 32.332031 196.34375 32.332031 181.625 L 32.332031 88.089844 C 32.332031 73.371094 38.179688 59.253906 48.585938 48.847656 C 58.996094 38.4375 73.113281 32.589844 87.832031 32.589844 Z M 87.832031 32.589844 " clip-rule="nonzero"/></clipPath><clipPath id="2b6c02af74"><path d="M 30.921875 31.179688 L 323.746094 31.179688 L 323.746094 238.160156 L 30.921875 238.160156 Z M 30.921875 31.179688 " clip-rule="nonzero"/></clipPath><clipPath id="aaefd65a27"><path d="M 30.921875 86.679688 L 30.921875 183.035156 C 30.921875 197.757812 36.769531 211.871094 47.175781 222.28125 C 57.585938 232.6875 71.699219 238.535156 86.421875 238.535156 L 267.664062 238.535156 C 282.382812 238.535156 296.5 232.6875 306.90625 222.28125 C 317.316406 211.871094 323.164062 197.757812 323.164062 183.035156 L 323.164062 86.679688 C 323.164062 71.960938 317.316406 57.84375 306.90625 47.4375 C 296.5 37.027344 282.382812 31.179688 267.664062 31.179688 L 86.421875 31.179688 C 71.699219 31.179688 57.585938 37.027344 47.175781 47.4375 C 36.769531 57.84375 30.921875 71.960938 30.921875 86.679688 Z M 30.921875 86.679688 " clip-rule="nonzero"/></clipPath><clipPath id="6c46621075"><path d="M 30.921875 86.675781 L 30.921875 183.03125 C 30.921875 197.75 36.769531 211.863281 47.175781 222.273438 C 57.585938 232.679688 71.699219 238.527344 86.421875 238.527344 L 267.660156 238.527344 C 282.382812 238.527344 296.496094 232.679688 306.90625 222.273438 C 317.3125 211.863281 323.160156 197.75 323.160156 183.03125 L 323.160156 86.675781 C 323.160156 71.957031 317.3125 57.84375 306.90625 47.433594 C 296.496094 37.027344 282.382812 31.179688 267.660156 31.179688 L 86.421875 31.179688 C 71.699219 31.179688 57.585938 37.027344 47.175781 47.433594 C 36.769531 57.84375 30.921875 71.957031 30.921875 86.675781 Z M 30.921875 86.675781 " clip-rule="nonzero"/></clipPath><clipPath id="6f23a1a48b"><rect x="0" width="355" y="0" height="269"/></clipPath></defs><g transform="matrix(1, 0, 0, 1, 9, 36)"><g clip-path="url(#6f23a1a48b)"><g clip-path="url(#0e8e6c8e05)"><g clip-path="url(#dcd1c2e133)"><g transform="matrix(1, 0, 0, 1, 108, 63)"><g clip-path="url(#7bead6d0a1)"><g clip-path="url(#427b279716)"><g clip-path="url(#eee012b4f4)"><path fill="#9ba8ab" d="M 0.1875 0.304688 L 147.695312 0.304688 L 147.695312 147.808594 L 0.1875 147.808594 Z M 0.1875 0.304688 " fill-opacity="1" fill-rule="nonzero"/></g></g></g></g></g></g><g clip-path="url(#9825b0fd00)"><g clip-path="url(#92a2274346)"><g clip-path="url(#dfc90c4361)"><path fill="#282828" d="M 320.417969 62.152344 C 316.984375 49.21875 306.691406 38.902344 293.78125 35.464844 C 270.410156 29.078125 176.445312 29.078125 176.445312 29.078125 C 176.445312 29.078125 82.316406 29.242188 58.949219 35.628906 C 46.039062 39.066406 35.742188 49.382812 32.3125 62.316406 C 26.101562 85.730469 26.101562 134.691406 26.101562 134.691406 C 26.101562 134.691406 26.101562 183.648438 32.476562 207.226562 C 35.90625 220.160156 46.203125 230.476562 59.113281 233.914062 C 82.480469 240.300781 176.445312 240.300781 176.445312 240.300781 C 176.445312 240.300781 270.410156 240.300781 293.78125 233.914062 C 306.691406 230.476562 316.984375 220.160156 320.417969 207.226562 C 326.792969 183.8125 326.792969 134.691406 326.792969 134.691406 C 326.792969 134.691406 326.792969 85.730469 320.417969 62.152344 Z M 146.378906 179.882812 L 146.378906 89.5 L 224.492188 134.691406 Z M 146.378906 179.882812 " fill-opacity="1" fill-rule="nonzero"/></g></g></g><g clip-path="url(#2b6c02af74)"><g clip-path="url(#aaefd65a27)"><g clip-path="url(#6c46621075)"><path stroke-linecap="butt" transform="matrix(1.176018, 0, 0, 1.176018, 30.920667, 31.180176)" fill="none" stroke-linejoin="miter" d="M 0.00102713 47.189408 L 0.00102713 129.123058 C 0.00102713 141.638808 4.973447 153.639711 13.822161 162.491747 C 22.674198 171.340462 34.675101 176.312881 47.194172 176.312881 L 201.305964 176.312881 C 213.825035 176.312881 225.825938 171.340462 234.677974 162.491747 C 243.526689 153.639711 248.499109 141.638808 248.499109 129.123058 L 248.499109 47.189408 C 248.499109 34.673658 243.526689 22.672755 234.677974 13.820719 C 225.825938 4.972004 213.825035 -0.000415511 201.305964 -0.000415511 L 47.194172 -0.000415511 C 34.675101 -0.000415511 22.674198 4.972004 13.822161 13.820719 C 4.973447 22.672755 0.00102713 34.673658 0.00102713 47.189408 Z M 0.00102713 47.189408 " stroke="#9ba8ab" stroke-width="12.754903" stroke-opacity="1" stroke-miterlimit="4"/></g></g></g></g></g></svg>